<svg width="416" height="283" xmlns="http://www.w3.org/2000/svg"><g transform="translate(1 1)" fill="none" fill-rule="evenodd"><path d="M191.383 272.863C256.258 289.89 322.229 271.225 343 237c44-72.5 10.34-106 5-135 18.621-46.156 12-87 6-87s-11 9-43.746 30.02c-43.727-55-99.777-43.485-130.383-43.485C98.594 6.82 13.391 68.59 2 164.5c-11.39 95.91 62.3 132.633 189.383 108.363z" stroke="#0A0A0A" stroke-width="3" fill="#393838"/><path d="M196 189c-3.614 11.333 7.72 22 34 32 22.695 8.636 41.452 18.266 56.271 28.89a10 10 0 0 0 13.004-1.163C311.537 236.089 321.112 223.847 328 212c8.021-13.797 13.021-27.297 15-40.5-12.777 10.1-26.444 15.934-41 17.5-11.777 1.267-24.444-3.233-38-13.5" stroke="#000" stroke-width="3" fill="#F3ECEC"/><path d="M243 56c-22.5-5-37.792-56.118-52-50-4.742 2.042-3.92 68.995-7.444 71.662C164.63 91.984 162 114.467 162 136c0 37.555 43.205 68 96.5 68 18.071 0 20-15.5 63-15.5 30.458 0 33.5-27.679 33.5-52.5" stroke="#000" stroke-width="3" fill="#393838"/><path d="M241 141c5.876-.71 14 1.893 14 5.946 0 4.054-1 2.054-7 7.054 0 9 0 9-4.516 9-6.484 0-4.484-5-5.484-9-4.809-3.214-7.086-4.031-6.388-7.054.802-3.477 3.512-5.236 9.388-5.946z" stroke="#000" stroke-width="3" fill="#FBA7C6"/><path d="M220 172c4.667-4.667 12.333-8 23-10 6.333 0 13 4.833 20 14.5" stroke="#000" stroke-width="3" fill="#D8D8D8" stroke-linecap="round"/><path d="M350.41 32.977l-5.39 33.75a2 2 0 0 1-2.945 1.433L321.7 56.867a2 2 0 0 1-.344-3.257l25.765-22.456a2 2 0 0 1 3.289 1.823z" stroke="#000" stroke-width="3" fill="#B87590"/><ellipse stroke="#070707" stroke-width="3" fill="#8EAB48" cx="212" cy="110.5" rx="24" ry="25.5"/><ellipse stroke="#070707" stroke-width="3" fill="#8EAB48" cx="297" cy="118.5" rx="24" ry="25.5"/><path d="M196.015 170.634c-9.883 2.073-18.29 4.711-25.218 7.913-6.929 3.202-14.824 9.972-23.686 20.312" stroke="#F3ECEC" stroke-width="2" stroke-linecap="round"/><path d="M198.317 18.509l21.147 30.284a2 2 0 0 1-1.122 3.077l-22.502 6.029a2 2 0 0 1-2.51-2.104l3.171-36.8a1 1 0 0 1 1.816-.486z" stroke="#000" stroke-width="3" fill="#B87590"/><path d="M283 155.5c32.386-4.873 55.886-6.206 70.5-4 14.614 2.206 34.614 6.597 60 13.173M286.989 165.65c31.41 9.27 53.272 17.993 65.585 26.169 12.312 8.175 28.583 20.607 48.811 37.295M315.801 160.069c24.034 2.579 40.78 6.589 50.236 12.029 9.455 5.44 21.963 14.217 37.524 26.332M205.5 155.5c-18.126-11.754-31.876-19.42-41.25-23-9.374-3.58-23.124-6.413-41.25-8.5M199.448 162.166c-18.945-6.121-32.664-8.973-41.158-8.556-8.494.417-19.692 4.493-33.594 12.227" stroke="#F3ECEC" stroke-width="2" stroke-linecap="round"/><path d="M76.5 205.5c-2 16 6 24 24 24 43 2 57.288-10.708 94.5-8s57 12 59.5 20.25-55.83-2.14-85.5 7.75c-10.5 3.5-38.5 24-100.5 24" stroke="#000" stroke-width="3" stroke-linecap="round"/><ellipse stroke="#000" stroke-width="3" fill="#000" cx="294.5" cy="117.5" rx="11.5" ry="12.5"/><ellipse stroke="#000" stroke-width="3" fill="#000" cx="208.5" cy="110.5" rx="11.5" ry="12.5"/><path d="M312.088 43.455c-3.74 3.192-9.318 7.453-16.734 12.782a8 8 0 0 1-4.3 1.495c-34.275 1.583-50.96.412-50.054-3.512" stroke="#000" stroke-width="3"/></g></svg>