<svg width="484" height="272" xmlns="http://www.w3.org/2000/svg"><g fill="none" fill-rule="evenodd"><path d="M343.226 157.562c-4.498.801-5.32 1.822-1.964 2.478 6.272 1.166 12.164 6.633 14.254 13.265 3.611 11.298 6.462 18.077 8.109 19.535 1.9 1.604 6.462 1.968 10.136.802 2.217-.729 2.217.072-.19 5.758-1.077 2.624-2.534 4.957-3.421 5.467-1.33.874-1.774.802-3.42-.583-5.512-4.447-16.029-7.144-22.11-5.612l-2.09.582 1.013-2.77c2.027-5.612-.19-11.37-4.815-12.463l-2.217-.437 2.407 2.55c2.027 2.26 2.344 2.989 2.344 5.832 0 4.227-1.647 6.632-5.511 8.164-3.294 1.311-8.236 1.53-10.453.51-.824-.365-2.217-.875-3.104-1.094-4.624-1.166-18.625-14.505-21.983-21.065-1.394-2.697-5.195-2.551-5.195.218 0 2.114 5.069 9.404 10.897 15.672 8.362 9.038 18.561 15.38 30.851 19.17 5.195 1.53 7.476 1.822 15.585 1.822 6.841 0 10.642-.291 13.62-1.166 6.399-1.896 6.588-1.822 8.425 2.916.888 2.332 1.838 5.174 2.091 6.268.38 1.895.253 1.968-1.077 1.604-2.154-.583-6.335 1.238-7.729 3.426-2.724 4.154-1.076 10.86 4.625 18.805 5.068 6.997 7.602 11.881 7.602 14.36 0 2.915-1.267 6.778-2.724 8.163-1.52 1.384-1.33 2.26.443 2.26 2.534 0 10.453-9.622 13.24-16.036 5.322-12.246 4.372-27.042-2.027-31.853-2.534-1.969-6.145-2.187-7.792-.438-1.393 1.458-1.963.876-3.04-3.06-.444-1.605-1.395-3.937-2.155-5.103-2.47-3.863-2.47-3.863.634-5.395 3.674-1.894 6.462-1.894 11.53-.072 2.217.802 5.701 1.458 7.665 1.458 3.041 0 4.118-.365 6.145-2.114 3.738-3.134 5.702-5.467 6.842-8.018.76-1.603 1.52-2.26 2.66-2.26.825 0 2.978-.8 4.689-1.822 1.71-1.02 3.547-1.822 3.99-1.822 1.015 0 6.145 6.123 6.145 7.29 0 .436-.633.582-1.52.29-2.09-.583-4.181 1.896-4.181 4.958.063 5.83 7.475 15.743 14.888 19.898 6.334 3.572 18.434 5.904 22.109 4.3 1.52-.655 1.267-1.384-1.394-3.352-2.977-2.333-5.575-7.727-6.145-12.975-.19-2.187-.633-5.03-.95-6.196-.254-1.238-.697-3.133-.887-4.227-.507-2.332-4.878-8.164-7.349-9.622-1.583-.947-4.118-1.384-6.778-1.239-.824.074-2.535 1.312-3.864 2.697l-2.471 2.48-2.724-3.208c-3.295-3.864-3.105-5.176 1.077-5.904 5.384-.875 8.869-3.718 10.642-8.528 2.914-8.164 2.281-7.508 7.159-8.383 5.068-.948 12.607-1.167 12.987-.365.127.365 0 1.604-.253 2.843-.38 1.604-1.267 2.697-2.851 3.572-2.47 1.312-2.598 2.77-.19 3.134 2.154.292 4.625-2.114 6.271-6.123 1.077-2.478 1.647-3.207 2.471-2.842.57.291 2.027.874 3.231 1.239 6.081 2.04 11.72 7.216 13.683 12.682 1.141 3.135 1.141 7.362-.063 11.226-1.013 3.207-.823 4.373.634 4.373 1.394 0 3.04-3.353 3.864-8.018.633-3.572.57-4.81-.19-7.581-1.14-3.863-4.878-9.038-8.68-11.953-2.407-1.896-10.452-5.613-13.366-6.123-.696-.146-1.267-.583-1.267-.948-.317-6.924-8.362-11.59-14.57-8.455-3.105 1.604-5.575 4.446-7.413 8.455-.696 1.604-1.393 2.989-1.457 3.135-.063.073-2.344.947-5.005 1.895l-4.877 1.749-1.52-3.426c-1.901-4.373-2.851-5.248-6.273-5.685-3.737-.51-7.221 1.458-8.361 4.592-1.14 3.134-1.14 4.592.126 8.82 1.014 3.352 1.014 3.498-.317 4.738-1.71 1.53-2.977 1.093-3.484-1.24-.57-2.405-4.308-5.539-7.285-5.977-6.778-1.02-10.706 8.456-6.715 16.328l1.52 3.134-1.393.875c-4.815 3.061-18.752 10.058-20.02 10.058-.38 0 .19-1.53 1.204-3.425 1.078-1.895 2.218-5.321 2.661-7.58.697-4.083.76-4.156 3.294-4.738 4.942-1.24 6.209-8.383 3.041-16.546-2.788-7.071-9.185-12.757-18.498-16.547-4.561-1.822-15.268-2.624-21.476-1.457zm110.927 6.705c1.33.73 2.597 3.28 2.153 4.155-.19.291-2.09.583-4.307.656-2.218.073-5.512.364-7.412.583l-3.421.51 1.203-2.405c2.154-4.301 7.73-5.977 11.784-3.499zm-33.83 6.123c1.457 1.167 3.295 4.665 3.295 6.341 0 .803-8.236 5.613-9.63 5.613-.57 0-1.773-4.957-1.773-7.435 0-1.24.696-2.551 1.964-3.79 2.217-2.187 4.117-2.406 6.144-.73zm15.965 5.758c0 .875-2.09 5.175-3.674 7.581-1.584 2.478-6.59 5.612-7.73 4.81-.379-.291-.126-1.603.634-3.28.697-1.603 1.267-3.498 1.267-4.227 0-1.896.95-2.697 4.751-4.009 3.422-1.239 4.752-1.457 4.752-.875zm-34.526 5.613c1.774.947 4.434 5.248 3.864 6.342-.634 1.093-8.172 6.632-9.059 6.632-1.52 0-3.104-5.248-2.787-9.33.126-1.676 3.104-4.519 4.751-4.519.887 0 2.344.364 3.231.875zm0 18.149c4.497 1.24 4.497 1.24 2.534 3.572-2.597 3.134-5.702 4.52-10.136 4.592-3.928.073-8.109-1.312-7.792-2.551.38-1.312 10.326-7.07 11.593-6.706.697.219 2.407.729 3.801 1.093zm-42.445 3.353c3.104 1.094 7.286 4.082 7.286 5.249 0 1.02-4.752 3.06-8.553 3.644-6.018.948-16.915-.948-25.213-4.447-5.829-2.405-5.005-2.915 10.326-5.685 4.498-.801 12.163-.219 16.154 1.24zM124.387 102.497c3.975-.718 4.702-1.632 1.736-2.22-5.542-1.044-10.748-5.94-12.595-11.88-3.19-10.12-5.71-16.192-7.165-17.497-1.679-1.436-5.71-1.763-8.956-.718-1.96.652-1.96-.065.168-5.158.952-2.35 2.239-4.44 3.023-4.896 1.175-.783 1.567-.718 3.022.522 4.87 3.983 14.162 6.398 19.536 5.027l1.847-.522-.895 2.48c-1.792 5.027.167 10.185 4.254 11.164l1.959.391-2.127-2.284c-1.791-2.024-2.071-2.677-2.071-5.223 0-3.787 1.455-5.94 4.87-7.312 2.91-1.175 7.277-1.37 9.236-.457.727.327 1.959.783 2.743.98 4.086 1.044 16.457 12.991 19.423 18.867 1.232 2.415 4.59 2.284 4.59-.196 0-1.894-4.478-8.422-9.627-14.036-7.39-8.096-16.402-13.775-27.26-17.17-4.59-1.371-6.606-1.632-13.771-1.632-6.045 0-9.404.26-12.035 1.044-5.654 1.698-5.822 1.632-7.445-2.61-.784-2.09-1.623-4.636-1.847-5.615-.336-1.698-.224-1.763.952-1.437 1.903.523 5.597-1.11 6.829-3.068 2.407-3.721.951-9.727-4.087-16.843-4.478-6.267-6.717-10.641-6.717-12.861 0-2.611 1.12-6.071 2.407-7.312C95.728.785 95.56 0 93.993 0c-2.24 0-9.236 8.618-11.7 14.363-4.702 10.967-3.862 24.22 1.792 28.53 2.239 1.762 5.43 1.958 6.885.39 1.231-1.305 1.735-.783 2.687 2.742.391 1.437 1.231 3.526 1.903 4.57 2.183 3.46 2.183 3.46-.56 4.832-3.247 1.697-5.71 1.697-10.188.065-1.959-.718-5.037-1.306-6.773-1.306-2.687 0-3.639.327-5.43 1.894-3.302 2.806-5.037 4.896-6.045 7.18-.671 1.436-1.343 2.024-2.35 2.024-.729 0-2.632.718-4.143 1.633-1.512.913-3.135 1.632-3.527 1.632-.896 0-5.43-5.484-5.43-6.529 0-.391.56-.522 1.345-.261 1.847.522 3.694-1.697 3.694-4.44-.056-5.222-6.605-14.1-13.155-17.822-5.597-3.199-16.289-5.288-19.536-3.852-1.343.588-1.12 1.24 1.232 3.003 2.63 2.09 4.926 6.92 5.43 11.621.167 1.959.56 4.505.84 5.55.223 1.109.615 2.806.783 3.786.448 2.089 4.31 7.312 6.493 8.617 1.4.849 3.639 1.24 5.99 1.11.727-.066 2.239-1.175 3.414-2.415l2.183-2.22 2.407 2.872c2.91 3.46 2.743 4.635-.951 5.288-4.758.783-7.837 3.33-9.404 7.638-2.575 7.312-2.016 6.725-6.326 7.508-4.478.849-11.14 1.045-11.475.327-.112-.327 0-1.437.224-2.546.336-1.437 1.12-2.416 2.519-3.2 2.183-1.174 2.295-2.48.168-2.806-1.903-.262-4.087 1.892-5.542 5.483-.951 2.22-1.455 2.873-2.183 2.546-.504-.261-1.791-.783-2.855-1.11-5.373-1.827-10.355-6.462-12.09-11.358-1.008-2.808-1.008-6.595.056-10.055.895-2.873.727-3.917-.56-3.917-1.232 0-2.687 3.003-3.415 7.182-.56 3.199-.504 4.308.168 6.79 1.008 3.459 4.31 8.094 7.669 10.705 2.127 1.698 9.236 5.027 11.81 5.484.616.132 1.12.523 1.12.85.28 6.201 7.39 10.38 12.875 7.572 2.743-1.436 4.926-3.982 6.55-7.573.615-1.436 1.23-2.676 1.287-2.807.055-.066 2.07-.848 4.422-1.698l4.31-1.566 1.343 3.068c1.68 3.917 2.52 4.7 5.542 5.092 3.303.457 6.381-1.305 7.388-4.112 1.008-2.808 1.008-4.114-.111-7.9-.896-3.003-.896-3.133.28-4.244 1.51-1.37 2.63-.979 3.079 1.11.503 2.155 3.806 4.962 6.437 5.354 5.989.913 9.46-7.574 5.933-14.624l-1.344-2.807 1.232-.784c4.255-2.742 16.569-9.009 17.689-9.009.336 0-.168 1.37-1.064 3.069-.952 1.697-1.959 4.765-2.351 6.789-.616 3.656-.671 3.721-2.91 4.243-4.367 1.11-5.486 7.508-2.688 14.82 2.464 6.333 8.117 11.425 16.345 14.82 4.03 1.632 13.491 2.35 18.976 1.305zm-98.014-6.006c-1.175-.653-2.295-2.938-1.903-3.721.168-.261 1.847-.522 3.806-.587 1.96-.066 4.87-.327 6.55-.522l3.022-.458-1.063 2.154c-1.904 3.853-6.83 5.354-10.412 3.134zm29.892-5.484c-1.288-1.045-2.911-4.178-2.911-5.68 0-.718 7.277-5.026 8.508-5.026.504 0 1.567 4.439 1.567 6.659 0 1.11-.615 2.285-1.735 3.395-1.959 1.958-3.638 2.154-5.43.652zM42.158 85.85c0-.784 1.848-4.635 3.247-6.79 1.4-2.22 5.822-5.026 6.829-4.309.336.262.112 1.437-.56 2.938-.615 1.437-1.12 3.134-1.12 3.787 0 1.697-.839 2.415-4.197 3.59-3.024 1.11-4.199 1.306-4.199.784zm30.507-5.027c-1.567-.849-3.918-4.7-3.414-5.68.56-.98 7.22-5.94 8.004-5.94 1.344 0 2.743 4.7 2.463 8.356-.111 1.5-2.742 4.047-4.198 4.047-.783 0-2.07-.326-2.855-.783zm0-16.255c-3.974-1.11-3.974-1.11-2.239-3.2 2.295-2.807 5.038-4.048 8.957-4.112 3.47-.066 7.164 1.174 6.885 2.285-.336 1.174-9.125 6.332-10.244 6.006a84.558 84.558 0 0 0-3.359-.98zm37.504-3.004c-2.742-.98-6.437-3.656-6.437-4.7 0-.914 4.198-2.742 7.557-3.265 5.318-.848 14.946.85 22.278 3.983 5.15 2.154 4.423 2.611-9.123 5.092-3.975.718-10.748.196-14.275-1.11z" fill="#8DC63F" fill-rule="nonzero"/><path d="M187.448 84.336c0 .384-.408 1.464-1.224 3.24a139.42 139.42 0 0 0-2.232 5.112c-1.248 2.784-2.304 6-3.168 9.648-.864 3.648-1.824 6.912-2.88 9.792a313.786 313.786 0 0 0-3.744 11.376 95.603 95.603 0 0 0-2.736 11.232c-.192 1.44-.576 3.24-1.152 5.4s-.96 4.44-1.152 6.84a72.783 72.783 0 0 0-.36 5.976 86.323 86.323 0 0 1-.36 6.264v1.008l.144.288.72-.72h1.152c.192.192.312.432.36.72.048.288.168.624.36 1.008.384-.384.912-.936 1.584-1.656.672-.72 1.392-.888 2.16-.504a544.215 544.215 0 0 1-2.952 4.536 60.176 60.176 0 0 0-2.808 4.68c-.288.576-.456 1.32-.504 2.232a19.558 19.558 0 0 1-.36 2.808c-.192.672-.528 1.368-1.008 2.088s-.96 1.488-1.44 2.304c-.48.816-.888 1.632-1.224 2.448a5.053 5.053 0 0 0-.36 2.52c-.672.48-1.104.96-1.296 1.44-.192.48-.312.936-.36 1.368-.048.432-.096.84-.144 1.224-.048.384-.264.672-.648.864-.384-.192-.816-.552-1.296-1.08-.48-.528-.816-1.032-1.008-1.512l-.72.72a3.844 3.844 0 0 1-1.008.72c-.192 0-.456-.144-.792-.432-.336-.288-.504-.672-.504-1.152 0-.768.312-1.752.936-2.952.624-1.2.84-2.184.648-2.952a172.75 172.75 0 0 0-3.096 4.968 664.731 664.731 0 0 0-2.952 4.968h-.864a60.842 60.842 0 0 1-3.096-5.04c-1.008-1.824-1.512-3.552-1.512-5.184-.096-.192-.192-.312-.288-.36-.096-.048-.192-.168-.288-.36.288-.288.264-.936-.072-1.944a80.008 80.008 0 0 0-1.224-3.384c-.48-1.248-.96-2.52-1.44-3.816-.48-1.296-.72-2.328-.72-3.096v-2.16c.192-.288.768-.432 1.728-.432.48 0 .888.048 1.224.144.336.096.6.432.792 1.008a29.24 29.24 0 0 1 1.8 5.472 44.45 44.45 0 0 0 1.656 5.616c.288-.192.408-.408.36-.648a3.034 3.034 0 0 1-.072-.504l-17.136-58.608c-1.056.864-1.776 1.872-2.16 3.024a13.084 13.084 0 0 0-.648 3.672 35.037 35.037 0 0 0 .072 3.888c.096 1.296 0 2.52-.288 3.672-.288 1.152-.744 2.712-1.368 4.68-.624 1.968-1.08 3.768-1.368 5.4-.192.768-.24 1.608-.144 2.52a9.292 9.292 0 0 1-.144 2.808c0 .192-.144.408-.432.648-.288.24-.432.6-.432 1.08.192 2.784.312 5.376.36 7.776.048 2.4-.6 4.992-1.944 7.776-.096.192-.072.456.072.792s.12.696-.072 1.08a302.21 302.21 0 0 0-4.68 9.792 223.574 223.574 0 0 1-4.68 9.648c-.384.576-1.008 1.032-1.872 1.368-.864.336-1.392.504-1.584.504-.48 0-.768-.192-.864-.576-.096-.384-.336-.768-.72-1.152-.192.192-.336.6-.432 1.224-.096.624-.576 1.032-1.44 1.224-1.056-.672-1.512-1.368-1.368-2.088.144-.72-.024-1.08-.504-1.08s-.744.096-.792.288c-.048.192-.168.384-.36.576.096.48.36 1.08.792 1.8.432.72.6 1.608.504 2.664-.384-.192-.864-.528-1.44-1.008s-1.008-1.008-1.296-1.584c-.096 0-.384.24-.864.72-.576 0-1.104-.24-1.584-.72 0-1.344-.12-2.736-.36-4.176a263.01 263.01 0 0 0-.648-3.744c-.192-1.056-.72-2.16-1.584-3.312a30.926 30.926 0 0 0-2.88-3.312 23.349 23.349 0 0 0-3.384-2.808c-1.2-.816-2.232-1.416-3.096-1.8-.384-.192-.792-.576-1.224-1.152-.432-.576-.648-1.056-.648-1.44 0-.096.048-.192.144-.288.096-.096.144-.168.144-.216 0-.048.096-.168.288-.36 1.344.288 3.096 1.344 5.256 3.168s4.008 3.792 5.544 5.904c.192-.192.264-.24.216-.144-.048.096-.072-.096-.072-.576 0-.192-.168-1.632-.504-4.32a351.719 351.719 0 0 0-1.368-9.648c-.576-3.744-1.176-7.656-1.8-11.736-.624-4.08-1.224-7.56-1.8-10.44-.48-2.496-1.2-5.424-2.16-8.784-.96-3.36-1.824-6.576-2.592-9.648-.672-3.072-1.248-6.48-1.728-10.224a129.982 129.982 0 0 0-1.872-10.944 33.67 33.67 0 0 0-.864-2.808 64.642 64.642 0 0 0-1.224-3.24 179.429 179.429 0 0 1-1.152-2.88c-.336-.864-.504-1.392-.504-1.584 0-.48.048-.84.144-1.08.096-.24.144-.648.144-1.224.576-.192 1.296-.216 2.16-.072.864.144 1.8.36 2.808.648 1.008.288 2.016.552 3.024.792s1.944.36 2.808.36c1.248 0 2.376-.192 3.384-.576a19.897 19.897 0 0 0 2.664-1.224c.768-.432 1.464-.84 2.088-1.224.624-.384 1.224-.576 1.8-.576h1.584l.144.144a.977.977 0 0 1 .288.72c0 .48-.48 1.32-1.44 2.52s-1.68 2.424-2.16 3.672c-.384.864-.696 1.992-.936 3.384a95.867 95.867 0 0 0-.648 4.392 74.72 74.72 0 0 0-.432 4.608 65.655 65.655 0 0 0-.144 4.032v1.8c0 1.008.048 2.16.144 3.456.096 1.296.168 2.616.216 3.96.048 1.344.168 2.496.36 3.456.192.768.528 1.68 1.008 2.736.48 1.056.816 2.064 1.008 3.024.96 4.704 2.088 9.456 3.384 14.256 1.296 4.8 2.904 9.984 4.824 15.552.96-1.536 1.584-3.024 1.872-4.464.288-1.44.48-2.808.576-4.104a23.97 23.97 0 0 1 .504-3.528c.24-1.056.888-1.92 1.944-2.592-.96-1.824-1.68-3.48-2.16-4.968a15.15 15.15 0 0 1-.72-4.68v-2.592c.192-.768.528-1.56 1.008-2.376.48-.816.72-1.464.72-1.944s-.12-.768-.36-.864c-.24-.096-.408-.24-.504-.432-.384-.576-.744-1.464-1.08-2.664-.336-1.2-.504-2.04-.504-2.52v-9.936c0-.48-.192-1.128-.576-1.944-.384-.816-.576-1.464-.576-1.944s.264-.984.792-1.512.936-.84 1.224-.936c.672.576 1.104 1.056 1.296 1.44.192.384.24.696.144.936a1.69 1.69 0 0 1-.36.576c-.144.144-.216.36-.216.648v1.44a2.7 2.7 0 0 0 1.224.288c.432 0 .84.048 1.224.144.288.192.504.576.648 1.152.144.576.36 1.008.648 1.296.384.48.888 1.056 1.512 1.728a26.814 26.814 0 0 1 1.8 2.16l.144-.144c0-.096.096-.24.288-.432a79.133 79.133 0 0 1 1.872-6.264 64.972 64.972 0 0 0 1.944-6.984c.528-2.4.864-4.776 1.008-7.128a15.89 15.89 0 0 0-1.08-6.84c-.096-.288-.12-.744-.072-1.368.048-.624.072-1.224.072-1.8.192 0 .312-.048.36-.144.048-.096.312-.144.792-.144.768 0 1.296.36 1.584 1.08.288.72.576 1.176.864 1.368.576.48 1.392.84 2.448 1.08 1.056.24 1.824.36 2.304.36.672 0 1.392-.048 2.16-.144.768-.096 1.344-.816 1.728-2.16a5.654 5.654 0 0 0-1.8-.288h-2.088c0-.192-.072-.384-.216-.576-.144-.192-.216-.528-.216-1.008 0-.672.48-1.392 1.44-2.16-.192-.384-.432-.84-.72-1.368-.288-.528-.432-1.032-.432-1.512 0-.768.336-1.656 1.008-2.664a25.553 25.553 0 0 1 2.16-2.808c.096-.192.072-.432-.072-.72s-.168-.624-.072-1.008c.096-.864.504-1.512 1.224-1.944.72-.432 1.224-.648 1.512-.648.864 0 1.68.36 2.448 1.08.768.72 1.488 1.536 2.16 2.448a21.52 21.52 0 0 1 1.728 2.736c.48.912.816 1.56 1.008 1.944.192-.96.648-2.184 1.368-3.672.72-1.488 2.088-2.664 4.104-3.528.384.192.744.504 1.08.936.336.432.6.84.792 1.224a27.743 27.743 0 0 0 1.872-1.512c.48-.432 1.152-.648 2.016-.648 1.248 0 1.944.384 2.088 1.152.144.768.216 1.488.216 2.16v1.872a7.308 7.308 0 0 0 2.016.288c.672 0 1.2.384 1.584 1.152.288.672.192 1.632-.288 2.88s-1.104 2.256-1.872 3.024c.192.288.504.576.936.864a3.56 3.56 0 0 1 1.08 1.152c.096.192.144.432.144.72s.048.528.144.72c1.344 1.056 3.144 1.848 5.4 2.376 2.256.528 4.2.792 5.832.792.192 0 .864-.12 2.016-.36 1.152-.24 2.424-.48 3.816-.72s2.664-.48 3.816-.72c1.152-.24 1.824-.36 2.016-.36.48 0 .96.144 1.44.432.48.288.72.672.72 1.152zM177.08 165.84c0 .192-.168.6-.504 1.224a17.433 17.433 0 0 1-1.296 2.016 89.879 89.879 0 0 0-1.584 2.232c-.528.768-.936 1.44-1.224 2.016a75.082 75.082 0 0 0-2.952 4.968c-.912 1.68-2.328 3.432-4.248 5.256-.192-.192-.312-.336-.36-.432-.048-.096-.072-.384-.072-.864 0-.864.528-2.232 1.584-4.104a53.396 53.396 0 0 1 3.672-5.616 151.384 151.384 0 0 1 3.96-5.112c1.248-1.536 2.064-2.4 2.448-2.592.192.192.336.288.432.288.096 0 .144.24.144.72zm-77.04 16.416c0 .096-.048.192-.144.288-.192.192-.48.288-.864.288-.864 0-1.656-.432-2.376-1.296a14.854 14.854 0 0 1-1.872-2.88 23.693 23.693 0 0 1-1.296-3.096l-.648-1.944.432-2.016a482.15 482.15 0 0 0 3.096 5.184 72.656 72.656 0 0 0 3.672 5.472zm60.192-108.864c-1.632.096-3.168.864-4.608 2.304-1.44 1.44-2.832 2.592-4.176 3.456 0 .384.096.864.288 1.44.192.576.384 1.056.576 1.44a35.642 35.642 0 0 0 2.376-1.512 21.456 21.456 0 0 0 2.592-2.088 14.131 14.131 0 0 0 2.088-2.448c.576-.864.864-1.728.864-2.592zm-10.656-4.32c-1.056.864-1.68 1.68-1.872 2.448-.192.768-.192 1.488 0 2.16.48-.768.96-1.584 1.44-2.448.48-.864.624-1.584.432-2.16zm6.912.864V67.92c-.576.192-1.272.48-2.088.864-.816.384-1.368.864-1.656 1.44a89 89 0 0 0-1.152 1.584c-.48.672-.984 1.344-1.512 2.016a14.114 14.114 0 0 1-1.584 1.728c-.528.48-1.032.72-1.512.72a.934.934 0 0 1-.864-.504c-.192-.336-.288-.648-.288-.936 0 .48.048 1.008.144 1.584.096.576.048 1.104-.144 1.584a15.915 15.915 0 0 1-2.16-3.024 63.375 63.375 0 0 1-1.584-3.096 22.466 22.466 0 0 0-1.584-2.808 7.713 7.713 0 0 0-2.16-2.16c-.576.384-.864.912-.864 1.584 0 .192.336.72 1.008 1.584.672.864 1.44 1.872 2.304 3.024.864 1.152 1.728 2.28 2.592 3.384.864 1.104 1.44 1.944 1.728 2.52.672-.096 1.656-.384 2.952-.864a21.578 21.578 0 0 0 3.816-1.872 13.016 13.016 0 0 0 3.24-2.808c.912-1.104 1.368-2.28 1.368-3.528zm3.6 10.656h-2.304c-.192 0-.48.144-.864.432-.384.288-.816.6-1.296.936-.48.336-.984.696-1.512 1.08-.528.384-.936.672-1.224.864 0 .192.072.456.216.792.144.336.216.6.216.792h2.304c.384 0 .84-.168 1.368-.504a7.493 7.493 0 0 0 1.512-1.296c.48-.528.888-1.08 1.224-1.656.336-.576.456-1.056.36-1.44zm-3.6 9.648c-.192-.576-.768-1.248-1.728-2.016s-1.632-1.152-2.016-1.152h-1.296c.48 1.152 1.32 1.92 2.52 2.304 1.2.384 2.04.672 2.52.864zm-6.048-6.192V81.6c-.864-.672-1.728-1.008-2.592-1.008-.672 0-1.488.216-2.448.648-.96.432-1.44 1.224-1.44 2.376 0 .768.384 1.224 1.152 1.368.768.144 1.392.216 1.872.216.48 0 1.032-.048 1.656-.144.624-.096 1.224-.432 1.8-1.008zm-8.64-6.48c-.48-.576-.984-1.2-1.512-1.872-.528-.672-1.032-1.32-1.512-1.944a29.365 29.365 0 0 0-1.296-1.584c-.384-.432-.72-.648-1.008-.648-.768 0-1.344.384-1.728 1.152-.384.768-.576 1.344-.576 1.728 0 .48.096.864.288 1.152.192.288.384.624.576 1.008h1.8c.72 0 1.32.048 1.8.144a7.836 7.836 0 0 1 1.728.504c.576.24 1.056.36 1.44.36zm-2.592 1.296v-.576l-2.016-.432v.576l2.016.432zm11.52 13.824v-2.304c0-.48-.192-1.032-.576-1.656-.384-.624-.672-1.176-.864-1.656h-2.736v1.152c0 .384.096.672.288.864h1.872c.48.768.744 1.56.792 2.376.048.816.456 1.224 1.224 1.224zm-8.208-10.512c-.384-.576-.96-.864-1.728-.864s-1.704.384-2.808 1.152c-1.104.768-1.752 1.68-1.944 2.736h1.296A55.207 55.207 0 0 0 140 83.616a29.4 29.4 0 0 1 2.52-1.44zm2.16 5.904c0-.576-.096-1.008-.288-1.296-.192-.288-1.008-.816-2.448-1.584a53.173 53.173 0 0 1-2.448 3.888c-.864 1.248-1.296 2.592-1.296 4.032 0 .96.288 1.68.864 2.16.672-.096 1.152-.36 1.44-.792.288-.432.528-.888.72-1.368.192-.48.384-.984.576-1.512a2.306 2.306 0 0 1 1.008-1.224c.288-.192.6-.36.936-.504.336-.144.6-.312.792-.504.096-.192.144-.624.144-1.296zm3.6 7.632c0-.768-.264-1.68-.792-2.736-.528-1.056-1.176-1.824-1.944-2.304-1.152 1.056-1.776 1.896-1.872 2.52a12.773 12.773 0 0 0-.144 1.944c0 .48.096 1.296.288 2.448.192 1.152.48 2.16.864 3.024 1.344-.48 2.28-1.224 2.808-2.232.528-1.008.792-1.896.792-2.664zm14.298 52.746c.245-.409.663-.855 1.254-1.338.288 1.344.168 2.592-.36 3.744-.528 1.152-.888 2.256-1.08 3.312-.192.768-.36 1.872-.504 3.312-.144 1.44-.264 2.688-.36 3.744.192-.672.432-1.44.72-2.304.288-.864.624-1.68 1.008-2.448s.816-1.464 1.296-2.088a3.31 3.31 0 0 1 1.872-1.224c.096-2.4.312-4.92.648-7.56a238.54 238.54 0 0 1 2.232-14.184c.384-2.016.72-3.648 1.008-4.896.672-3.072 1.608-5.928 2.808-8.568a89.04 89.04 0 0 0 3.096-7.704 2877 2877 0 0 0 3.456-10.728c1.152-3.6 2.4-7.224 3.744-10.872.096-.288.12-.72.072-1.296a17.89 17.89 0 0 1-.072-1.44c-1.344.672-2.808 1.032-4.392 1.08-1.584.048-2.904.072-3.96.072-.192 0-.624-.024-1.296-.072a31.53 31.53 0 0 0-2.232-.072c-.816 0-1.68-.024-2.592-.072a46.008 46.008 0 0 0-2.376-.072c.48.864.912 1.968 1.296 3.312.384 1.344.576 2.544.576 3.6l-1.44 12.24v14.688l-4.422 27.834zm-11.994-52.746c-.192.48-.36 1.056-.504 1.728-.144.672-.456 1.296-.936 1.872-.768 1.056-1.704 2.184-2.808 3.384-1.104 1.2-1.56 2.184-1.368 2.952 1.248-.384 2.256-1.008 3.024-1.872a10.35 10.35 0 0 0 1.8-2.808c.432-1.008.696-1.992.792-2.952.096-.96.096-1.728 0-2.304zm15.984-1.296c0-1.152-.048-2.184-.144-3.096a8.013 8.013 0 0 0-.72-2.592c-.384-.816-.984-1.632-1.8-2.448-.816-.816-1.896-1.752-3.24-2.808a14.99 14.99 0 0 1-2.088 2.232c-.816.72-1.512 1.32-2.088 1.8.576.768 1.08 1.512 1.512 2.232.432.72.648 1.32.648 1.8s-.048.768-.144.864l-.432.432c-.864-.192-1.824-.504-2.88-.936-1.056-.432-2.016-.84-2.88-1.224.288 1.152.432 2.568.432 4.248 0 1.68-.264 3.36-.792 5.04a15.074 15.074 0 0 1-2.448 4.68c-1.104 1.44-2.616 2.544-4.536 3.312.384 3.264.792 6.6 1.224 10.008a96.83 96.83 0 0 0 1.8 10.008c.384 1.632.96 3.336 1.728 5.112.768 1.776 1.296 3.432 1.584 4.968.48 2.208.984 4.632 1.512 7.272.528 2.64 1.176 5.016 1.944 7.128.384.96.912 1.872 1.584 2.736a27.477 27.477 0 0 1 1.872 2.736c.384-2.4.96-5.232 1.728-8.496.768-3.264 1.536-6.6 2.304-10.008a295.73 295.73 0 0 0 2.016-9.648c.576-3.024.864-5.448.864-7.272v-16.992c0-.192.072-.84.216-1.944.144-1.104.312-2.304.504-3.6.192-1.296.36-2.496.504-3.6.144-1.104.216-1.752.216-1.944zm-33.696 13.536h-.576l-.432 1.728h.576l.432-1.728zm.576 4.896c-.192-.192-.48-.24-.864-.144s-.672.24-.864.432c.672 0 1.104-.048 1.296-.144.192 0 .336-.048.432-.144zm23.04 50.256v-1.584c0-.576-.048-1.008-.144-1.296-.48-1.536-1.176-3.168-2.088-4.896-.912-1.728-1.464-2.976-1.656-3.744A284.428 284.428 0 0 0 149.792 141a334.68 334.68 0 0 1-3.168-12.024 208.986 208.986 0 0 1-2.664-12.6c-.768-4.272-1.2-8.376-1.296-12.312 0-1.248-.12-2.568-.36-3.96s-.456-2.76-.648-4.104c-.768.48-1.584.72-2.448.72-.864 0-1.488-.36-1.872-1.08-.384-.72-.576-1.56-.576-2.52 0-.48.216-1.464.648-2.952.432-1.488.888-2.76 1.368-3.816l-3.24 1.8c-1.296.72-2.184 1.08-2.664 1.08-.768 0-1.176-.456-1.224-1.368a69.92 69.92 0 0 1-.072-1.512 147.64 147.64 0 0 1-2.232-.576 147.64 147.64 0 0 0-2.232-.576c-.096 3.264-.36 6.312-.792 9.144a131.94 131.94 0 0 1-1.584 8.496 236.412 236.412 0 0 1-2.16 8.928 367.49 367.49 0 0 0-2.52 10.296 24.728 24.728 0 0 1-1.656 4.392c-.72 1.488-1.08 2.424-1.08 2.808v1.584a65.17 65.17 0 0 1 3.888 6.336c1.248 2.304 2.4 4.56 3.456 6.768l4.464-24.768a9.414 9.414 0 0 0-.576-1.008c-.192-.288-.192-.528 0-.72 1.152-2.688 1.992-5.784 2.52-9.288.528-3.504.984-6.792 1.368-9.864.096-.48.336-1.224.72-2.232.384-1.008.912-1.512 1.584-1.512.096 0 .168.024.216.072.048.048.12.072.216.072h.144v.144c-.48 2.112-.864 4.2-1.152 6.264-.288 2.064.048 4.872 1.008 8.424a5.578 5.578 0 0 1-.072 2.664c-.24.912-.264 1.704-.072 2.376.864 3.84 1.872 7.632 3.024 11.376 1.152 3.744 2.304 7.536 3.456 11.376.384 1.248.864 2.64 1.44 4.176a650.494 650.494 0 0 1 1.656 4.464c.528 1.44 1.008 2.736 1.44 3.888.432 1.152.744 2.016.936 2.592a148.13 148.13 0 0 1 1.008 3.96c.384 1.584.792 3.24 1.224 4.968.432 1.728.864 3.48 1.296 5.256.432 1.776.936 3.384 1.512 4.824a90.393 90.393 0 0 1 .288-7.056c.096-1.152.192-2.208.288-3.168.096-.96.24-1.632.432-2.016.384-.384.72-.576 1.008-.576.096.576.168 1.176.216 1.8.048.624.072 1.44.072 2.448v3.888c0 1.584.048 3.576.144 5.976.288-1.152.552-2.112.792-2.88.24-.768.456-1.512.648-2.232.192-.72.336-1.416.432-2.088.096-.672.144-1.488.144-2.448zm11.952-1.872h-.432l-.432 1.728h.576l.288-1.728zm-50.4-46.512c0-.576-.216-1.464-.648-2.664-.432-1.2-1.176-1.848-2.232-1.944.48 3.264.768 5.76.864 7.488 1.056-.192 1.656-.648 1.8-1.368.144-.72.216-1.224.216-1.512zm-3.744 4.032a82.139 82.139 0 0 1-.432-5.04 28.981 28.981 0 0 0-.72-5.04c0 1.632.024 3.312.072 5.04a14.169 14.169 0 0 0 1.08 5.04zm51.84 41.616v-4.608c-1.344 3.36-2.592 6.984-3.744 10.872-1.152 3.888-1.776 7.704-1.872 11.448.576-.288 1.2-1.152 1.872-2.592a42.259 42.259 0 0 0 1.872-4.824 41.453 41.453 0 0 0 1.368-5.472c.336-1.872.504-3.48.504-4.824zm-6.48 8.784a41.331 41.331 0 0 1-.648 2.304c-.24.768-.456 1.536-.648 2.304.384-.768.696-1.536.936-2.304.24-.768.36-1.536.36-2.304zm-.432-7.632a2.507 2.507 0 0 1-.792.936 6.4 6.4 0 0 0-.792.648 166.33 166.33 0 0 1-.72 4.536c-.288 1.68-.6 3.384-.936 5.112-.336 1.728-.648 3.36-.936 4.896-.288 1.536-.48 2.88-.576 4.032.192-.384.48-.84.864-1.368.384-.528.624-.936.72-1.224.48-3.168 1.008-6.168 1.584-9a245.409 245.409 0 0 0 1.584-8.568zm-35.136-6.48v-2.016c0-2.208-.456-4.56-1.368-7.056a69.148 69.148 0 0 0-3.096-7.2 351.541 351.541 0 0 1-3.096-6.336c-.912-1.92-1.368-3.36-1.368-4.32 0-1.056.312-2.136.936-3.24.624-1.104 1.368-2.568 2.232-4.392-1.536.96-2.64 2.4-3.312 4.32-.672 1.92-1.008 3.504-1.008 4.752 0 2.112.408 4.032 1.224 5.76a55.897 55.897 0 0 0 2.952 5.4 73.312 73.312 0 0 1 3.384 6.192c1.104 2.256 1.944 4.968 2.52 8.136zm38.016 26.496l-.576-.288-1.152 1.584.432.432 1.296-1.728zm-15.84-10.08a72.367 72.367 0 0 1-.504-3.168 4.67 4.67 0 0 0-1.368-2.736c.192.864.456 1.848.792 2.952a25.784 25.784 0 0 0 1.08 2.952zm-24.336-15.984c0-2.784-.72-5.544-2.16-8.28a117.827 117.827 0 0 0-4.32-7.56 314.38 314.38 0 0 1-2.52 11.232 622.109 622.109 0 0 1-2.808 11.088h-.864a3.49 3.49 0 0 1-.432-.504 3.49 3.49 0 0 0-.432-.504l-.864-5.472c-.288-1.824-.576-3.12-.864-3.888a26.88 26.88 0 0 0-1.44-3.24c-.576-1.104-.96-2.088-1.152-2.952-.768-2.88-1.608-6.024-2.52-9.432a263.252 263.252 0 0 1-2.592-10.584 185.536 185.536 0 0 1-2.088-10.8c-.576-3.552-.864-6.912-.864-10.08 0-1.44.072-2.832.216-4.176.144-1.344.36-2.736.648-4.176.288-1.44.648-2.976 1.08-4.608.432-1.632.984-3.504 1.656-5.616-1.344.384-2.928.72-4.752 1.008-1.824.288-2.976.432-3.456.432-1.152 0-2.424-.072-3.816-.216-1.392-.144-2.616-.552-3.672-1.224 2.016 5.28 3.408 10.152 4.176 14.616.768 4.464 1.536 9 2.304 13.608.384 2.496.84 5.04 1.368 7.632a126.393 126.393 0 0 0 1.8 7.632 98.162 98.162 0 0 0 1.584 4.392c.576 1.488.96 2.904 1.152 4.248.48 2.976.816 6.048 1.008 9.216.192 3.168.816 5.952 1.872 8.352.192.48.288 1.032.288 1.656v1.872c0 .624.024 1.248.072 1.872.048.624.264 1.128.648 1.512 1.728 2.208 2.88 4.296 3.456 6.264.576 1.968 1.104 3.768 1.584 5.4 0-.384.096-.816.288-1.296.192-.48.288-.912.288-1.296 0-.192-.144-.936-.432-2.232a130.743 130.743 0 0 1-.864-4.248 130.743 130.743 0 0 0-.864-4.248c-.288-1.296-.432-2.04-.432-2.232 0-.48-.024-.888-.072-1.224a1.303 1.303 0 0 1 .216-.936c2.112 3.648 3.36 7.128 3.744 10.44.384 3.312.576 6.312.576 9a34.197 34.197 0 0 0 1.872-4.464c.096-.192.288-.84.576-1.944s.72-2.256 1.296-3.456a19.04 19.04 0 0 1 2.016-3.312c.768-1.008 1.68-1.512 2.736-1.512.48 0 .744-.024.792-.072.048-.048.168.024.36.216l-5.04 13.104 7.2-9.216c-.672 0-1.152-.24-1.44-.72.96-1.44 1.704-2.592 2.232-3.456.528-.864.912-1.584 1.152-2.16.24-.576.384-1.104.432-1.584.048-.48.072-1.104.072-1.872zm29.376 26.064v-2.304c0-.768-.096-1.344-.288-1.728-.288-.288-.48-.432-.576-.432h-.288c.096.768.264 1.536.504 2.304.24.768.456 1.488.648 2.16zm-2.592.144l-.432-1.728h-.576l.432 1.728h.576zm-28.224-14.4c-.48.288-1.056.792-1.728 1.512-.672.72-1.152 1.368-1.44 1.944 0 .192.12.408.36.648.24.24.312.456.216.648-1.056 1.824-2.136 3.912-3.24 6.264-1.104 2.352-1.992 4.44-2.664 6.264l8.496-17.28zm-6.912-2.16c-1.92 4.224-3.408 8.16-4.464 11.808a28.04 28.04 0 0 0 2.736-6.12c.672-2.16 1.248-4.056 1.728-5.688zm-.144 12.096l-.576-.288-2.592 4.896.576.288 2.592-4.896zm-10.224-.864v-2.88c0-.672-.12-1.8-.36-3.384-.24-1.584-.936-3-2.088-4.248a187.63 187.63 0 0 1 1.152 5.256 64.808 64.808 0 0 0 1.296 5.256zm110.592 2.304c0 .48-.192.792-.576.936a8.38 8.38 0 0 1-1.296.36c-.48.096-.912.168-1.296.216-.384.048-.576.216-.576.504 0 .192.144.504.432.936.288.432.48.84.576 1.224a8.583 8.583 0 0 1-.648.288c-.24.096-.456.144-.648.144-.576 0-1.032-.12-1.368-.36a18.58 18.58 0 0 0-1.224-.792l-.144.576c-.096.384-.216.792-.36 1.224-.144.432-.336.84-.576 1.224-.24.384-.552.576-.936.576-.672 0-1.08-.456-1.224-1.368-.144-.912-.312-1.608-.504-2.088-.288.192-.768.648-1.44 1.368-.672.72-1.248 1.08-1.728 1.08a.887.887 0 0 1-.504-.144.887.887 0 0 0-.504-.144h-.864c-.192 0-.504-.072-.936-.216-.432-.144-.648-.312-.648-.504a.69.69 0 0 1 .216-.504l.504-.504v-.432c-.096.192-.288.288-.576.288-.096-.192-.144-.432-.144-.72s-.048-.528-.144-.72c-.288.192-.6.36-.936.504-.336.144-.6.216-.792.216-.48 0-.768-.12-.864-.36a1.769 1.769 0 0 1-.144-.648c0-.48.336-1.128 1.008-1.944.672-.816 1.344-1.368 2.016-1.656-.288-.192-.768-.336-1.44-.432-.672-.096-1.152-.384-1.44-.864.096-.864.648-1.272 1.656-1.224 1.008.048 1.752-.072 2.232-.36a7.901 7.901 0 0 0-.432-1.008c-.192-.384-.288-.72-.288-1.008 0-1.344.72-2.016 2.16-2.016h.72c.288 0 .576.24.864.72.576-.576.864-1.08.864-1.512 0-.432.384-.648 1.152-.648.768 0 1.176.456 1.224 1.368.048.912.312 1.8.792 2.664.96-.48 1.752-1.008 2.376-1.584.624-.576 1.416-.864 2.376-.864.576 0 .912.048 1.008.144.096.096.144.384.144.864 0 .768-.288 1.488-.864 2.16.384 0 .84-.12 1.368-.36.528-.24.888-.36 1.08-.36.672 0 1.008.336 1.008 1.008 0 .48-.24.888-.72 1.224-.48.336-1.104.744-1.872 1.224.096.288.288.48.576.576.288.096.6.216.936.36.336.144.648.312.936.504.288.192.432.48.432.864zm-1.44-4.608h-.864c-.096 0-.36.096-.792.288-.432.192-.888.384-1.368.576-.48.192-.912.384-1.296.576-.384.192-.624.288-.72.288-.192 0-.312.024-.36.072-.048.048-.168.024-.36-.072.576-.768 1.32-1.536 2.232-2.304.912-.768 1.368-1.248 1.368-1.44v-.72h-.72c-.192 0-.456.072-.792.216-.336.144-.6.264-.792.36-.192.192-.48.456-.864.792l-1.152 1.008c-.384.336-.72.648-1.008.936-.288.288-.432.48-.432.576 0 .192.072.456.216.792.144.336.264.6.36.792l.576-.432c.192.096.36.216.504.36a.69.69 0 0 0 .504.216c.288 0 .696-.096 1.224-.288a22.55 22.55 0 0 0 1.728-.72c.624-.288 1.2-.6 1.728-.936.528-.336.888-.648 1.08-.936zm.432 4.32c-.672-.48-1.176-.744-1.512-.792a10.169 10.169 0 0 0-1.368-.072c-.192 0-.672.072-1.44.216-.768.144-1.44.312-2.016.504 0 .288.024.504.072.648.048.144.072.264.072.36.48.096.984.144 1.512.144h1.08c.48 0 1.08-.024 1.8-.072.72-.048 1.32-.36 1.8-.936zm-8.64-5.184c0-.192-.096-.648-.288-1.368a10.242 10.242 0 0 0-.72-1.944c-.48.192-.768.456-.864.792-.096.336-.144.6-.144.792 0 .48.192 1.08.576 1.8.384.72.72 1.176 1.008 1.368.096-.192.192-.432.288-.72.096-.288.144-.528.144-.72zm5.904 8.928c-.192-.288-.48-.624-.864-1.008s-.672-.576-.864-.576h-.72c-.096.288.072.648.504 1.08.432.432.888.648 1.368.648.288 0 .48-.048.576-.144zm-7.344-6.192c-.288-.48-.552-.936-.792-1.368-.24-.432-.456-.888-.648-1.368-.192-.48-.432-.96-.72-1.44s-.672-.72-1.152-.72c-.768 0-1.152.48-1.152 1.44 0 .864.312 1.464.936 1.8a61.34 61.34 0 0 1 2.376 1.368c0 .096.024.192.072.288a.639.639 0 0 1 .072.288c.384-.192.72-.288 1.008-.288zm2.448 2.016c-.192-.48-.504-.792-.936-.936-.432-.144-.744-.216-.936-.216-.192 0-.528.12-1.008.36s-.816.504-1.008.792c.768.384 1.392.576 1.872.576.576 0 1.248-.192 2.016-.576zm1.008 3.888c0-.48-.024-.864-.072-1.152-.048-.288-.312-.816-.792-1.584a1.429 1.429 0 0 1-.648.144.895.895 0 0 0-.648.288v1.44c0 .48.216 1.152.648 2.016.432.864.696 1.344.792 1.44.192-.48.36-.984.504-1.512.144-.528.216-.888.216-1.08zm-7.056-6.336c-1.248-.192-2.4-.144-3.456.144.576.384.96.576 1.152.576.192 0 .552-.072 1.08-.216.528-.144.936-.312 1.224-.504zm2.16 3.456a.69.69 0 0 1-.504-.216c-.144-.144-.264-.216-.36-.216-.384.192-.768.528-1.152 1.008-.384.48-.624.864-.72 1.152.48-.288.96-.552 1.44-.792s.912-.552 1.296-.936zm-.432-2.448c-.096 0-.192-.048-.288-.144-.096 0-.144-.048-.144-.144-.48.768-1.368 1.344-2.664 1.728-1.296.384-2.232 1.296-2.808 2.736 1.056-.192 2.064-.72 3.024-1.584l2.88-2.592zm.864 5.04c-.192.192-.432.48-.72.864s-.432.72-.432 1.008c.192-.192.432-.504.72-.936.288-.432.432-.744.432-.936zm-2.448 1.008a.644.644 0 0 0-.36.432c-.048.192-.024.288.072.288s.168-.096.216-.288a1.97 1.97 0 0 0 .072-.432zm69.84-102.672c-.48.576-1.008 1.008-1.584 1.296-.576.288-1.248.48-2.016.576-.768.096-1.608.168-2.52.216-.912.048-1.848.168-2.808.36.288.288.672.576 1.152.864.48.288.936.576 1.368.864.432.288.792.624 1.08 1.008.288.384.384.816.288 1.296-.576.192-1.224.432-1.944.72s-1.32.432-1.8.432-1.44-.168-2.88-.504c-1.44-.336-2.4-.504-2.88-.504s-.792.168-.936.504a2.712 2.712 0 0 0-.216 1.08c0 1.44.096 2.904.288 4.392.192 1.488.288 3.048.288 4.68a.485.485 0 0 0-.432.216c-.096.144-.384.216-.864.216-.96 0-1.848-.624-2.664-1.872a21.563 21.563 0 0 0-2.808-3.456c-.192-.096-.672.24-1.44 1.008-.096.288.048.624.432 1.008s.672.816.864 1.296a3.797 3.797 0 0 1-.144 2.304c-.288.768-.432 1.392-.432 1.872v1.152c3.84 3.36 6.408 6.408 7.704 9.144 1.296 2.736 1.944 5.736 1.944 9 0 4.032-.84 7.752-2.52 11.16-1.68 3.408-4.632 6.936-8.856 10.584.192 1.056.216 2.28.072 3.672a39.871 39.871 0 0 0-.216 4.104c2.304.864 3.72 2.088 4.248 3.672s.792 3.24.792 4.968c0 1.056-.12 2.304-.36 3.744a51.394 51.394 0 0 1-.936 4.392 171.246 171.246 0 0 1-1.152 4.248 279.35 279.35 0 0 1-1.008 3.456c-.192.48-.192.768 0 .864.48-.48.96-1.104 1.44-1.872s.96-1.512 1.44-2.232c.48-.72.984-1.344 1.512-1.872s1.128-.792 1.8-.792c.384.288.576.768.576 1.44 0 .384-.144.936-.432 1.656-.288.72-.48 1.32-.576 1.8-.192.768-.504 1.896-.936 3.384-.432 1.488-.936 2.76-1.512 3.816a28.952 28.952 0 0 0-1.728 4.32c-.48 1.536-.432 2.976.144 4.32l-17.568.432-1.08-.216a114.922 114.922 0 0 1-4.824-1.08c-.768-.192-1.248-.336-1.44-.432-.192-.672-.12-1.464.216-2.376.336-.912.792-1.872 1.368-2.88a100.092 100.092 0 0 1 1.8-3.024 23.653 23.653 0 0 0 1.512-2.808 46.177 46.177 0 0 0 2.808-7.992c.72-2.832 1.176-5.304 1.368-7.416.096-.384.216-.888.36-1.512s.264-1.272.36-1.944c.096-.672.072-1.296-.072-1.872-.144-.576-.504-.96-1.08-1.152 1.248-.864 1.656-1.824 1.224-2.88-.432-1.056-1.08-2.112-1.944-3.168a22.98 22.98 0 0 1-2.232-3.24c-.624-1.104-.456-2.184.504-3.24-.768-.192-1.704-.432-2.808-.72a8.068 8.068 0 0 1-2.952-1.44c-.96-.768-1.656-1.488-2.088-2.16a29.599 29.599 0 0 1-1.08-1.8c-.288-.528-.576-.936-.864-1.224-.288-.288-.816-.432-1.584-.432-.48 0-1.344.168-2.592.504-1.248.336-2.112.504-2.592.504s-.864-.096-1.152-.288a9.414 9.414 0 0 0-1.008-.576c.48-.96 1.344-1.92 2.592-2.88s2.304-2.016 3.168-3.168a17.37 17.37 0 0 1 2.52-.72c.912-.192 1.608-.288 2.088-.288 1.536 0 3.288.432 5.256 1.296 1.968.864 3.768 2.736 5.4 5.616.192-1.44.336-3.096.432-4.968.096-1.872.144-3.048.144-3.528v-14.256c-1.632.096-2.88-.024-3.744-.36-.864-.336-1.512-.84-1.944-1.512-.432-.672-.672-1.488-.72-2.448a60.645 60.645 0 0 1-.072-3.024c0-.384.048-1.224.144-2.52a9.741 9.741 0 0 1 1.008-3.672c.288-.672.888-1.44 1.8-2.304.912-.864 1.752-1.536 2.52-2.016.672-.384 1.2-.6 1.584-.648.384-.048.72-.072 1.008-.072.288 0 .552-.048.792-.144.24-.096.456-.384.648-.864a8.755 8.755 0 0 0 .792-2.304 39.55 39.55 0 0 1 .504-2.304v-.144h-.144c-.096 0-.168-.024-.216-.072-.048-.048-.12-.072-.216-.072-.384 0-.816.312-1.296.936-.48.624-1.008 1.296-1.584 2.016a23.567 23.567 0 0 1-1.728 1.944c-.576.576-1.152.864-1.728.864-.864 0-1.416-.192-1.656-.576a2.395 2.395 0 0 1-.36-1.296c0-.48.096-.984.288-1.512.192-.528.288-.888.288-1.08v-1.008a2.542 2.542 0 0 0-1.296-.504 96.826 96.826 0 0 0-1.584-.144 7.392 7.392 0 0 1-1.728-.36c-.576-.192-1.056-.576-1.44-1.152-.192-1.152.048-2.16.72-3.024.672-.864 1.512-1.632 2.52-2.304a30.102 30.102 0 0 1 3.24-1.872c1.152-.576 2.112-1.2 2.88-1.872-.672-.768-.984-1.68-.936-2.736a6.848 6.848 0 0 1 .864-3.024c.528-.96 1.248-1.824 2.16-2.592.912-.768 1.896-1.248 2.952-1.44 0-.48-.072-1.128-.216-1.944-.144-.816-.216-1.464-.216-1.944 0-.288.024-.744.072-1.368a6.61 6.61 0 0 1 .432-1.872 6.18 6.18 0 0 1 .936-1.656c.384-.48.912-.72 1.584-.72.768 0 1.464.48 2.088 1.44.624.96 1.08 1.824 1.368 2.592.672-.192 1.08-.624 1.224-1.296.144-.672.264-1.368.36-2.088.096-.72.288-1.368.576-1.944.288-.576.912-.864 1.872-.864 1.056 0 1.848.528 2.376 1.584.528 1.056.792 2.064.792 3.024l.288 10.224c.576-.96 1.128-2.136 1.656-3.528a50.905 50.905 0 0 1 1.728-4.032c.624-1.296 1.368-2.4 2.232-3.312.864-.912 1.968-1.368 3.312-1.368.576 0 1.032.456 1.368 1.368.336.912.408 1.56.216 1.944.48 0 .744-.072.792-.216.048-.144.312-.216.792-.216.768 0 1.248.264 1.44.792.192.528.288.936.288 1.224 0 .48-.216 1.344-.648 2.592-.432 1.248-.84 2.4-1.224 3.456.48.192 1.008.312 1.584.36a7.751 7.751 0 0 1 1.584.288c.48.144.864.384 1.152.72.288.336.432.84.432 1.512 0 .768-.12 1.344-.36 1.728a3.36 3.36 0 0 1-1.008 1.008c-.432.288-.888.6-1.368.936-.48.336-1.008.792-1.584 1.368.48.192 1.128.36 1.944.504.816.144 1.584.36 2.304.648.72.288 1.344.72 1.872 1.296.528.576.744 1.344.648 2.304zm-10.512-21.024c-1.152.384-2.184 1.248-3.096 2.592-.912 1.344-1.368 2.352-1.368 3.024 1.056-.48 2.016-1.416 2.88-2.808.864-1.392 1.392-2.328 1.584-2.808zm6.192 10.8c-.192 0-.384-.072-.576-.216-.192-.144-.528-.216-1.008-.216-.192 0-.696.216-1.512.648-.816.432-1.656.936-2.52 1.512a29.136 29.136 0 0 1-2.52 1.512c-.816.432-1.32.648-1.512.648-.48 0-.816-.144-1.008-.432-.192-.288-.24-.528-.144-.72a6.038 6.038 0 0 1 2.16-1.8c.864-.432 1.584-.936 2.16-1.512 1.056-1.056 1.848-2.328 2.376-3.816.528-1.488.936-2.664 1.224-3.528-1.248.768-2.28 1.68-3.096 2.736a49.699 49.699 0 0 0-2.304 3.24 37.261 37.261 0 0 1-2.376 3.24c-.864 1.056-1.968 1.92-3.312 2.592v2.448l.432.432c1.152-.48 2.4-.864 3.744-1.152a37.084 37.084 0 0 0 3.96-1.08 15.912 15.912 0 0 0 3.528-1.656c1.056-.672 1.824-1.632 2.304-2.88zm-10.656-1.584l-.432-.432-1.584 1.584.432.432 1.584-1.584zm-5.904-6.192c0-.864-.072-1.8-.216-2.808-.144-1.008-.744-1.944-1.8-2.808a69.687 69.687 0 0 0-1.8 5.616c-.528 1.92-.792 3.648-.792 5.184 0 .384.072 1.008.216 1.872.144.864.312 1.632.504 2.304h3.888c-.384-.288-.6-.792-.648-1.512-.048-.72-.024-1.512.072-2.376a72.34 72.34 0 0 1 .36-2.736c.144-.96.216-1.872.216-2.736zm18.432 16.416c-.96-.384-2.04-.672-3.24-.864-1.2-.192-2.04-.288-2.52-.288-1.248 0-2.736.12-4.464.36-1.728.24-3.12.696-4.176 1.368.192.576.912 1.032 2.16 1.368 1.248.336 2.208.504 2.88.504.48 0 1.2-.072 2.16-.216.96-.144 1.944-.336 2.952-.576 1.008-.24 1.92-.504 2.736-.792.816-.288 1.32-.576 1.512-.864zm-25.344-10.224V62.16c.096-.288-.144-.936-.72-1.944s-1.104-1.608-1.584-1.8c-.384.48-.672 1.056-.864 1.728-.192.672-.288 1.248-.288 1.728 0 1.056.312 2.136.936 3.24.624 1.104 1.464 2.088 2.52 2.952zm7.056 5.904l-.864-.864-.432.288.864.864.432-.288zm11.808 10.944a42.703 42.703 0 0 0-2.52-1.152c-.912-.384-1.608-.528-2.088-.432h-1.584c.768.768 1.848 1.248 3.24 1.44 1.392.192 2.376.24 2.952.144zm-10.8-8.352a83.173 83.173 0 0 0-2.736-1.296c-1.056-.48-1.824-.72-2.304-.72-.864 0-1.872.504-3.024 1.512s-1.728 2.04-1.728 3.096c0 .48.24.888.72 1.224.48.336.912.696 1.296 1.08.768-.576 1.56-.984 2.376-1.224.816-.24 1.608-.456 2.376-.648a1.29 1.29 0 0 0 .36-.72c.048-.288.12-.528.216-.72.192-.384.528-.696 1.008-.936.48-.24.96-.456 1.44-.648zm-8.64-3.168c-.192-.48-.48-1.056-.864-1.728a17.998 17.998 0 0 0-1.224-1.872 13.513 13.513 0 0 0-1.224-1.44c-.384-.384-.672-.576-.864-.576-1.056 0-2.016.624-2.88 1.872-.864 1.248-1.296 2.16-1.296 2.736 0 .48.024.744.072.792l.36.36h3.312c.48 0 .84-.12 1.08-.36.24-.24.6-.36 1.08-.36.48 0 .816.192 1.008.576.192.384.48.672.864.864.096-.096.168-.192.216-.288.048-.096.12-.192.216-.288.096-.096.144-.192.144-.288zm11.376 21.024V93.12a27.5 27.5 0 0 1-.288-3.888c0-1.248-.048-2.4-.144-3.456a21.115 21.115 0 0 1-1.584-.72l-1.44-.72-.432 4.464a40.2 40.2 0 0 0 1.44 2.88c.48.864 1.296 1.776 2.448 2.736zm-7.776-8.208c-.192 0-.456-.072-.792-.216-.336-.144-.792-.216-1.368-.216a14.12 14.12 0 0 0-2.088 3.456 21.776 21.776 0 0 1-1.944 3.6c.672.096 1.344-.12 2.016-.648a9.534 9.534 0 0 0 1.8-1.872c.528-.72.984-1.464 1.368-2.232.384-.768.72-1.392 1.008-1.872zm-9.36-4.032l-.288-.576-1.296.864.288.576 1.296-.864zm3.456-6.768c-1.056.288-2.28.624-3.672 1.008-1.392.384-2.76.888-4.104 1.512a20.695 20.695 0 0 0-3.816 2.304c-1.2.912-2.088 1.992-2.664 3.24.48.192.984.312 1.512.36.528.048 1.032.072 1.512.072.864 0 1.608-.216 2.232-.648a17.237 17.237 0 0 0 1.872-1.512 12.282 12.282 0 0 1 2.016-1.512 4.532 4.532 0 0 1 2.376-.648c.384 0 .72.072 1.008.216.288.144.528.216.72.216.192-.576.36-1.224.504-1.944.144-.72.312-1.608.504-2.664zm-5.328 10.08H231.8c-.48.288-.912.864-1.296 1.728s-.576 1.44-.576 1.728c.576-.384 1.152-.912 1.728-1.584a19.797 19.797 0 0 0 1.44-1.872zm10.512 15.552c-.672-.096-1.152-.408-1.44-.936a6.982 6.982 0 0 1-.648-1.656 12.304 12.304 0 0 0-.504-1.584c-.192-.48-.48-.816-.864-1.008a37.791 37.791 0 0 1-2.88 2.304c-1.056.768-1.824 1.104-2.304 1.008v1.368c0 .528-.144 1.464-.432 2.808h3.456c.48 0 1.296-.264 2.448-.792a104.13 104.13 0 0 0 3.168-1.512zm9.936 15.696a19.845 19.845 0 0 1-.36-2.952c-.048-1.008-.168-1.8-.36-2.376-.192-.48-.576-1.128-1.152-1.944a22.627 22.627 0 0 0-2.016-2.448 15.76 15.76 0 0 0-2.376-2.088c-.816-.576-1.512-.864-2.088-.864-.48 0-1.152.192-2.016.576-.864.384-1.68.768-2.448 1.152.48-.192 1.08-.288 1.8-.288h3.384c.576 0 1.128.096 1.656.288.528.192.912.552 1.152 1.08.24.528.216 1.368-.072 2.52a49.627 49.627 0 0 1 2.664 3.816c.816 1.296 1.56 2.472 2.232 3.528zm0 3.888a69.308 69.308 0 0 0-.576 2.52 69.308 69.308 0 0 1-.576 2.52 10.4 10.4 0 0 0 .864-2.52 12.3 12.3 0 0 0 .288-2.52zm-20.448-26.208c-1.824.672-3.168 1.848-4.032 3.528-.864 1.68-1.296 3.24-1.296 4.68 0 .96.048 1.752.144 2.376.096.624.672 1.656 1.728 3.096a9.33 9.33 0 0 1 1.224-.504 9.33 9.33 0 0 0 1.224-.504c-.864.192-1.488.096-1.872-.288v-8.64c0-.48.384-1.08 1.152-1.8.768-.72 1.344-1.368 1.728-1.944zm18.432 25.2c0-1.056-.048-1.728-.144-2.016-.192-.48-.528-.96-1.008-1.44s-.816-.864-1.008-1.152a10.844 10.844 0 0 1-1.44-2.664c-.384-1.008-1.152-1.704-2.304-2.088v18.72c1.92-1.824 3.384-3.336 4.392-4.536 1.008-1.2 1.512-2.808 1.512-4.824zm-.144 7.632a28.199 28.199 0 0 1-3.024 2.592c-1.152.864-2.112 1.776-2.88 2.736-.192.288-.336.672-.432 1.152a5.14 5.14 0 0 1-.432 1.296h1.728c.96-.48 1.704-1.056 2.232-1.728a8.069 8.069 0 0 0 1.224-2.16c.288-.768.552-1.488.792-2.16.24-.672.504-1.248.792-1.728zm-21.6 8.496c-.192-1.344-1.08-2.736-2.664-4.176s-3.048-2.256-4.392-2.448a34.215 34.215 0 0 1 3.528 3.456c1.104 1.248 2.28 2.304 3.528 3.168zm-11.986-4.765a.42.42 0 0 1-.11.013c.034-.008.068-.014.102-.02l.008.007zm-.008-.007c.837-.145 1.763.198 2.778 1.028.576.384 1.128.912 1.656 1.584a55.127 55.127 0 0 1 1.512 2.016 7.475 7.475 0 0 0 1.584 1.656c.576.432 1.152.648 1.728.648-.288-.576-.696-1.272-1.224-2.088a26.538 26.538 0 0 0-1.8-2.448 10.563 10.563 0 0 0-2.304-2.088c-.864-.576-1.872-.864-3.024-.864-.48 0-.72.096-.72.288 0 .151-.06.243-.178.275l-.008-.007zm30.138 26.084c0-.768-.144-1.68-.432-2.736-.288-1.056-.816-1.824-1.584-2.304h-1.872v12.96c1.44-1.152 2.448-2.472 3.024-3.96.576-1.488.864-2.808.864-3.96zm-4.32-41.184c0-.48-.072-1.392-.216-2.736a191.79 191.79 0 0 0-.36-3.168c-.192-.384-.048-.72.432-1.008-1.92.384-3.6.648-5.04.792-1.44.144-2.688.312-3.744.504l-.432 14.976a47.58 47.58 0 0 1-.072 2.88 18.45 18.45 0 0 0 0 2.304c.048.768.168 1.632.36 2.592.192.96.528 2.208 1.008 3.744.288.96.36 2.088.216 3.384-.144 1.296-.36 2.424-.648 3.384-.096.192-.024.384.216.576.24.192.36.528.36 1.008 0 .192-.096.288-.288.288-.192 0-.384.048-.576.144-.192.096-.336.312-.432.648-.096.336 0 .936.288 1.8.384.384.672.72.864 1.008.192 5.952-.624 12.048-2.448 18.288-1.824 6.24-4.224 12.048-7.2 17.424.672.192 1.368.432 2.088.72s1.32.432 1.8.432h2.88c.096-.96.384-2.04.864-3.24.48-1.2 1.032-2.376 1.656-3.528.624-1.152 1.2-2.28 1.728-3.384s.888-2.088 1.08-2.952c.48-2.784.72-4.776.72-5.976 0-1.2-.024-2.088-.072-2.664a6.3 6.3 0 0 1 .072-1.656c.096-.528.48-1.464 1.152-2.808.192-.096.432-.144.72-.144h.72l1.152-24.48c0-.48.024-.864.072-1.152.048-.288-.024-.576-.216-.864a2.081 2.081 0 0 0-.648-.648.707.707 0 0 1-.36-.648c.576-.192.984-.624 1.224-1.296s.384-1.392.432-2.16a18.45 18.45 0 0 0 0-2.304 31.288 31.288 0 0 1-.072-1.872c.192-1.44.36-3.072.504-4.896.144-1.824.216-2.928.216-3.312zm-2.736 51.264c-.192 1.248-.36 2.472-.504 3.672-.144 1.2-.12 2.328.072 3.384.576-1.344.84-2.64.792-3.888-.048-1.248-.168-2.304-.36-3.168zm8.352 5.76c-.192.288-.6.936-1.224 1.944a280.633 280.633 0 0 0-2.016 3.312 52.53 52.53 0 0 0-1.944 3.528c-.576 1.152-.864 2.016-.864 2.592v1.584h1.728c.768-2.208 1.536-4.44 2.304-6.696.768-2.256 1.44-4.344 2.016-6.264zm-3.312-6.48a180.246 180.246 0 0 1-3.744 8.208c-1.44 2.976-2.16 5.76-2.16 8.352 0 .48.048.984.144 1.512.096.528.24.984.432 1.368l5.328-19.44zm-7.776 19.296c-.384-.384-.6-.744-.648-1.08a5.18 5.18 0 0 1 0-1.224c.048-.48.144-1.152.288-2.016.144-.864.216-2.016.216-3.456-.48.864-1.056 1.944-1.728 3.24-.672 1.296-1.008 2.184-1.008 2.664v1.872h2.88zm47.232-7.056c0 .48-.192.792-.576.936a8.38 8.38 0 0 1-1.296.36c-.48.096-.912.168-1.296.216-.384.048-.576.216-.576.504 0 .192.144.504.432.936.288.432.48.84.576 1.224a8.583 8.583 0 0 1-.648.288c-.24.096-.456.144-.648.144-.576 0-1.032-.12-1.368-.36a18.58 18.58 0 0 0-1.224-.792l-.144.576c-.096.384-.216.792-.36 1.224-.144.432-.336.84-.576 1.224-.24.384-.552.576-.936.576-.672 0-1.08-.456-1.224-1.368-.144-.912-.312-1.608-.504-2.088-.288.192-.768.648-1.44 1.368-.672.72-1.248 1.08-1.728 1.08a.887.887 0 0 1-.504-.144.887.887 0 0 0-.504-.144h-.864c-.192 0-.504-.072-.936-.216-.432-.144-.648-.312-.648-.504a.69.69 0 0 1 .216-.504l.504-.504v-.432c-.096.192-.288.288-.576.288-.096-.192-.144-.432-.144-.72s-.048-.528-.144-.72c-.288.192-.6.36-.936.504-.336.144-.6.216-.792.216-.48 0-.768-.12-.864-.36a1.769 1.769 0 0 1-.144-.648c0-.48.336-1.128 1.008-1.944.672-.816 1.344-1.368 2.016-1.656-.288-.192-.768-.336-1.44-.432-.672-.096-1.152-.384-1.44-.864.096-.864.648-1.272 1.656-1.224 1.008.048 1.752-.072 2.232-.36a7.901 7.901 0 0 0-.432-1.008c-.192-.384-.288-.72-.288-1.008 0-1.344.72-2.016 2.16-2.016h.72c.288 0 .576.24.864.72.576-.576.864-1.08.864-1.512 0-.432.384-.648 1.152-.648.768 0 1.176.456 1.224 1.368.048.912.312 1.8.792 2.664.96-.48 1.752-1.008 2.376-1.584.624-.576 1.416-.864 2.376-.864.576 0 .912.048 1.008.144.096.096.144.384.144.864 0 .768-.288 1.488-.864 2.16.384 0 .84-.12 1.368-.36.528-.24.888-.36 1.08-.36.672 0 1.008.336 1.008 1.008 0 .48-.24.888-.72 1.224-.48.336-1.104.744-1.872 1.224.096.288.288.48.576.576.288.096.6.216.936.36.336.144.648.312.936.504.288.192.432.48.432.864zm-1.44-4.608h-.864c-.096 0-.36.096-.792.288-.432.192-.888.384-1.368.576-.48.192-.912.384-1.296.576-.384.192-.624.288-.72.288-.192 0-.312.024-.36.072-.048.048-.168.024-.36-.072.576-.768 1.32-1.536 2.232-2.304.912-.768 1.368-1.248 1.368-1.44v-.72h-.72c-.192 0-.456.072-.792.216-.336.144-.6.264-.792.36-.192.192-.48.456-.864.792l-1.152 1.008c-.384.336-.72.648-1.008.936-.288.288-.432.48-.432.576 0 .192.072.456.216.792.144.336.264.6.36.792l.576-.432c.192.096.36.216.504.36a.69.69 0 0 0 .504.216c.288 0 .696-.096 1.224-.288a22.55 22.55 0 0 0 1.728-.72c.624-.288 1.2-.6 1.728-.936.528-.336.888-.648 1.08-.936zm.432 4.32c-.672-.48-1.176-.744-1.512-.792a10.169 10.169 0 0 0-1.368-.072c-.192 0-.672.072-1.44.216-.768.144-1.44.312-2.016.504 0 .288.024.504.072.648.048.144.072.264.072.36.48.096.984.144 1.512.144h1.08c.48 0 1.08-.024 1.8-.072.72-.048 1.32-.36 1.8-.936zm-8.64-5.184c0-.192-.096-.648-.288-1.368a10.242 10.242 0 0 0-.72-1.944c-.48.192-.768.456-.864.792-.096.336-.144.6-.144.792 0 .48.192 1.08.576 1.8.384.72.72 1.176 1.008 1.368.096-.192.192-.432.288-.72.096-.288.144-.528.144-.72zm5.904 8.928c-.192-.288-.48-.624-.864-1.008s-.672-.576-.864-.576h-.72c-.096.288.072.648.504 1.08.432.432.888.648 1.368.648.288 0 .48-.048.576-.144zm-7.344-6.192c-.288-.48-.552-.936-.792-1.368-.24-.432-.456-.888-.648-1.368-.192-.48-.432-.96-.72-1.44s-.672-.72-1.152-.72c-.768 0-1.152.48-1.152 1.44 0 .864.312 1.464.936 1.8a61.34 61.34 0 0 1 2.376 1.368c0 .096.024.192.072.288a.639.639 0 0 1 .072.288c.384-.192.72-.288 1.008-.288zm2.448 2.016c-.192-.48-.504-.792-.936-.936-.432-.144-.744-.216-.936-.216-.192 0-.528.12-1.008.36s-.816.504-1.008.792c.768.384 1.392.576 1.872.576.576 0 1.248-.192 2.016-.576zm1.008 3.888c0-.48-.024-.864-.072-1.152-.048-.288-.312-.816-.792-1.584a1.429 1.429 0 0 1-.648.144.895.895 0 0 0-.648.288v1.44c0 .48.216 1.152.648 2.016.432.864.696 1.344.792 1.44.192-.48.36-.984.504-1.512.144-.528.216-.888.216-1.08zm-7.056-6.336c-1.248-.192-2.4-.144-3.456.144.576.384.96.576 1.152.576.192 0 .552-.072 1.08-.216.528-.144.936-.312 1.224-.504zm2.16 3.456a.69.69 0 0 1-.504-.216c-.144-.144-.264-.216-.36-.216-.384.192-.768.528-1.152 1.008-.384.48-.624.864-.72 1.152.48-.288.96-.552 1.44-.792s.912-.552 1.296-.936zm-.432-2.448c-.096 0-.192-.048-.288-.144-.096 0-.144-.048-.144-.144-.48.768-1.368 1.344-2.664 1.728-1.296.384-2.232 1.296-2.808 2.736 1.056-.192 2.064-.72 3.024-1.584l2.88-2.592zm.864 5.04c-.192.192-.432.48-.72.864s-.432.72-.432 1.008c.192-.192.432-.504.72-.936.288-.432.432-.744.432-.936zm-2.448 1.008a.644.644 0 0 0-.36.432c-.048.192-.024.288.072.288s.168-.096.216-.288a1.97 1.97 0 0 0 .072-.432zm83.088-27.216c0 .192-.12.72-.36 1.584-.24.864-.48 1.752-.72 2.664-.24.912-.48 1.8-.72 2.664-.24.864-.36 1.392-.36 1.584v14.112c0 .576-.144 1.248-.432 2.016-.288.768-.576 1.56-.864 2.376a8.9 8.9 0 0 0-.504 2.448c-.048.816.168 1.56.648 2.232-.192.192-.504.384-.936.576-.432.192-.936.288-1.512.288-.192-.384-.288-.84-.288-1.368 0-.528-.096-1.032-.288-1.512-.384.48-.792.984-1.224 1.512-.432.528-1.032.984-1.8 1.368v-1.584c0-.192.12-.528.36-1.008s.48-1.008.72-1.584c.24-.576.48-1.104.72-1.584s.36-.864.36-1.152c0-.384-.048-.672-.144-.864l-.432-.864c-.768.48-1.488 1.2-2.16 2.16-.672.96-1.368 1.944-2.088 2.952a18.041 18.041 0 0 1-2.304 2.664c-.816.768-1.8 1.152-2.952 1.152 0-.192-.072-.432-.216-.72a2.227 2.227 0 0 1-.216-1.008c0-.192.072-.768.216-1.728.144-.96.312-2.064.504-3.312.192-1.248.408-2.568.648-3.96.24-1.392.456-2.616.648-3.672-.768 1.44-1.608 3.336-2.52 5.688a207.486 207.486 0 0 0-2.52 6.84c-.48.192-1.128.432-1.944.72-.816.288-1.416.432-1.8.432-.864 0-1.512-.36-1.944-1.08a5.807 5.807 0 0 1-.792-2.376 13.492 13.492 0 0 1-.072-2.376c.048-.72.072-1.128.072-1.224l.216-.432c.048-.096-.024-.336-.216-.72-.672.576-1.152 1.152-1.44 1.728a8.068 8.068 0 0 0-.648 1.8l-.432 1.872c-.144.624-.36 1.32-.648 2.088-.48-.096-1.272.096-2.376.576-1.104.48-1.896.912-2.376 1.296h-1.584c.192-.576.528-1.152 1.008-1.728.48-.576.72-1.104.72-1.584 0-.96-.672-2.016-2.016-3.168-.48.096-.792.432-.936 1.008-.144.576-.288 1.176-.432 1.8a9.124 9.124 0 0 1-.576 1.728c-.24.528-.648.792-1.224.792-.48 0-1.152-.192-2.016-.576a44.907 44.907 0 0 0-2.88-1.152c0-.864.432-1.728 1.296-2.592.192.192.24.48.144.864s.096.576.576.576.768-.096.864-.288c.096-.192.24-.384.432-.576l-.288-4.464c-1.056.864-1.848 1.824-2.376 2.88l-1.44 2.88a7.73 7.73 0 0 1-1.656 2.232c-.672.624-1.632.936-2.88.936-.576 0-1.2-.024-1.872-.072-.672-.048-1.104-.6-1.296-1.656a2.74 2.74 0 0 1-.72.504 2.74 2.74 0 0 0-.72.504c-.096 0-.192-.048-.288-.144-.096-.096-.144-.336-.144-.72 0-.192.24-.576.72-1.152s1.032-1.248 1.656-2.016c.624-.768 1.2-1.56 1.728-2.376.528-.816.888-1.512 1.08-2.088.192-.768.288-1.632.288-2.592V173.4c0-1.008.096-1.944.288-2.808.192-.864.576-1.584 1.152-2.16.864.768 1.344 1.704 1.44 2.808.096 1.104.24 2.184.432 3.24a3.49 3.49 0 0 0 .432-.504c.096-.144.384-.216.864-.216.384 0 .84.144 1.368.432.528.288 1.08.528 1.656.72.864-.864 1.296-1.728 1.296-2.592 0-.288-.288-.624-.864-1.008-.576-.384-.96-.768-1.152-1.152-1.056-1.536-1.896-3.528-2.52-5.976-.624-2.448-.552-4.92.216-7.416-.192-.192-.456-.36-.792-.504a20.381 20.381 0 0 1-1.08-.504c0-.384.144-.768.432-1.152.288-.384.48-.768.576-1.152.096-.48.144-1.128.144-1.944v-1.944l-1.44-16.992v-8.856c0-.72.024-1.224.072-1.512.048-.288.12-.528.216-.72.096 0 .144-.048.144-.144h-.144a.639.639 0 0 1-.288-.072.639.639 0 0 0-.288-.072c-.576 0-1.272.312-2.088.936a24.683 24.683 0 0 0-2.448 2.16 27.076 27.076 0 0 0-2.232 2.52c-.672.864-1.152 1.488-1.44 1.872a43.661 43.661 0 0 1-.216 6.624c-.24 2.208-.456 4.368-.648 6.48l2.16 13.536v12.528c0 .48.168 1.272.504 2.376.336 1.104.504 1.896.504 2.376 0 .384-.144.6-.432.648-.288.048-.624.312-1.008.792.48.768.84 1.176 1.08 1.224.24.048.6.168 1.08.36v2.304c0 .48-.288 1.104-.864 1.872-.576.768-.96 1.584-1.152 2.448-.192.48-.288.984-.288 1.512s-.096 1.128-.288 1.8c-.096.192-.264.48-.504.864s-.552.72-.936 1.008c-.576-.384-.912-.864-1.008-1.44-.096-.576-.096-1.224 0-1.944s.168-1.464.216-2.232a5.521 5.521 0 0 0-.36-2.304c-.48-1.536-.936-2.832-1.368-3.888a38.347 38.347 0 0 1-1.08-2.952c-.288-.912-.528-1.8-.72-2.664-.192-.864-.288-1.824-.288-2.88 0-1.92.216-3.504.648-4.752.432-1.248.936-2.328 1.512-3.24a58.147 58.147 0 0 0 1.512-2.52c.432-.768.648-1.632.648-2.592 0-1.824-.216-3.888-.648-6.192-.432-2.304-.552-4.512-.36-6.624 0-.48.024-1.08.072-1.8a10.02 10.02 0 0 0-.072-2.088 20.84 20.84 0 0 0-.864-3.024c-.384-1.056-.576-1.824-.576-2.304 0-.384.216-.984.648-1.8a10.59 10.59 0 0 0 .936-2.376c.192-.864.336-1.824.432-2.88.096-1.056.144-1.824.144-2.304 0-.384-.192-.768-.576-1.152-.384-.384-.672-.768-.864-1.152V87.648c0-.48.192-.936.576-1.368.384-.432.768-.84 1.152-1.224-.48-.384-1.08-.744-1.8-1.08-.72-.336-1.08-.744-1.08-1.224 0-1.152.36-1.8 1.08-1.944.72-.144 1.464-.696 2.232-1.656a7.48 7.48 0 0 0-2.664-.648 40.39 40.39 0 0 1-2.592-.216 10.156 10.156 0 0 1-2.232-.504c-.672-.24-1.2-.696-1.584-1.368.192-.576.576-1.056 1.152-1.44.576-.384 1.104-.576 1.584-.576.384 0 1.128.192 2.232.576a33.67 33.67 0 0 0 2.808.864c2.112.576 4.464.864 7.056.864-.48-1.248-1.224-2.16-2.232-2.736a20.033 20.033 0 0 0-3.096-1.44 16.986 16.986 0 0 1-2.808-1.296c-.816-.48-1.224-1.2-1.224-2.16 0-1.44.624-2.16 1.872-2.16.48 0 1.344.288 2.592.864 1.248.576 2.304 1.248 3.168 2.016.576-1.632.576-3.216 0-4.752a13.427 13.427 0 0 1-.864-4.752c0-.384.048-.864.144-1.44.096-.576.336-1.152.72-1.728 1.248.48 2.184 1.152 2.808 2.016a7.814 7.814 0 0 1 1.296 2.952c.24 1.104.408 2.232.504 3.384.096 1.152.288 2.208.576 3.168h.288a29.443 29.443 0 0 0 1.44-4.248c.384-1.488 1.104-2.904 2.16-4.248.288-.48.84-.84 1.656-1.08.816-.24 1.416-.6 1.8-1.08h1.296c.096.288-.096.72-.576 1.296-.48.576-.816 1.152-1.008 1.728-.192.48-.288 1.224-.288 2.232 0 1.008-.096 1.944-.288 2.808-.288.768-.744 1.68-1.368 2.736a112.568 112.568 0 0 1-1.944 3.168v.432c2.496-2.208 4.248-4.488 5.256-6.84 1.008-2.352 1.416-4.488 1.224-6.408.192.672.312 1.584.36 2.736.048 1.152-.024 2.4-.216 3.744.576.288 1.488.24 2.736-.144.192.384.288.96.288 1.728s.24 1.152.72 1.152.792-.12.936-.36c.144-.24.456-.36.936-.36h2.16c.192.192.384.288.576.288.192 0 .288.24.288.72s-.168 1.008-.504 1.584a5.564 5.564 0 0 1-1.296 1.512 10.31 10.31 0 0 1-1.584 1.08c-.528.288-.936.432-1.224.432.192-.288.6-.792 1.224-1.512a28.502 28.502 0 0 0 1.656-2.088l-.288-.288h-.72c-1.056 0-2.136.6-3.24 1.8-1.104 1.2-1.992 2.472-2.664 3.816v.432c0 .096.096.24.288.432a9.317 9.317 0 0 0 2.376-.864c.72-.384 1.32-.576 1.8-.576s.84.144 1.08.432c.24.288.456.624.648 1.008-1.728.288-3.288.552-4.68.792s-2.712.936-3.96 2.088c.576.672 1.44.792 2.592.36 1.152-.432 2.112-.744 2.88-.936h1.296c-.192.384-.408.648-.648.792-.24.144-.6.408-1.08.792a26.75 26.75 0 0 1 3.672 3.096c1.2 1.2 1.272 2.472.216 3.816-.096.192.024.336.36.432.336.096.696.24 1.08.432V88.8c-.864.48-1.824 1.2-2.88 2.16a38.83 38.83 0 0 0-3.096 3.168 188.672 188.672 0 0 0-2.952 3.456c-.96 1.152-1.776 2.16-2.448 3.024a22.78 22.78 0 0 1 .432 6.768 25.486 25.486 0 0 1-1.44 6.624v.432c.576-.768 1.272-1.68 2.088-2.736.816-1.056 1.464-1.584 1.944-1.584h1.728l.864.864c-.288 1.824-.432 3.816-.432 5.976s-.384 3.912-1.152 5.256c-.192.384-.6.744-1.224 1.08-.624.336-1.176.504-1.656.504s-1.056-.12-1.728-.36c-.672-.24-1.248-.36-1.728-.36s-.768.048-.864.144l-.432.432c-.192.768-.312 1.68-.36 2.736a56.992 56.992 0 0 0-.072 2.304c0 .288-.024.792-.072 1.512-.048.72.36 1.32 1.224 1.8h.144c.192 0 .336-.048.432-.144a52.366 52.366 0 0 0-.864-1.656c-.288-.528-.336-1.224-.144-2.088 2.688 1.632 4.56 4.032 5.616 7.2s1.584 6.24 1.584 9.216c0 1.056-.288 2.592-.864 4.608-.576 2.016-1.968 3.984-4.176 5.904-.48.384-.84.912-1.08 1.584a10.57 10.57 0 0 0-.504 1.944 26.118 26.118 0 0 0-.216 1.8c-.048.576-.072.96-.072 1.152 0 1.152.384 2.52 1.152 4.104.768 1.584 1.632 2.76 2.592 3.528a6.287 6.287 0 0 0 1.44-1.728c.384-.672.864-1.392 1.44-2.16h1.296c0 .48-.072 1.08-.216 1.8l-.504 2.52c1.152-1.344 2.04-2.76 2.664-4.248a22.106 22.106 0 0 0 1.368-4.608c.288-1.584.48-3.192.576-4.824l.288-4.896c.192.768.384 1.728.576 2.88.192 1.152.288 1.968.288 2.448 0 1.92-.288 4.032-.864 6.336a30.699 30.699 0 0 1-2.592 6.768c-.192.192-.336.552-.432 1.08a4.795 4.795 0 0 0 0 1.656 3.39 3.39 0 0 0 1.08.936c.432.24.84.456 1.224.648a29.408 29.408 0 0 0 4.896-6.048 57.237 57.237 0 0 1 4.608-6.48c-.384.96-.72 1.992-1.008 3.096-.288 1.104-.816 2.184-1.584 3.24-.672 1.056-1.536 2.256-2.592 3.6a138.254 138.254 0 0 1-3.168 3.888 158.516 158.516 0 0 0-2.736 3.312c-.768.96-1.152 1.536-1.152 1.728 0 .48.336 1.032 1.008 1.656a19.685 19.685 0 0 1 1.728 1.8c1.248-.576 1.92-1.416 2.016-2.52.096-1.104.24-2.136.432-3.096.192-1.152.672-2.496 1.44-4.032.768-1.536 1.488-2.736 2.16-3.6.192-.288.48-.6.864-.936.384-.336.816-.6 1.296-.792 2.112-.864 3.696-1.944 4.752-3.24a15.057 15.057 0 0 0 2.448-4.248 40.477 40.477 0 0 0 1.44-4.68 16.19 16.19 0 0 1 1.872-4.536c0 .672.144 1.536.432 2.592.288 1.056.432 1.824.432 2.304 0 .192-.072.744-.216 1.656a97.895 97.895 0 0 0-.432 3.096c-.144 1.152-.288 2.4-.432 3.744a227.544 227.544 0 0 0-.36 3.6c.192.096.432-.024.72-.36.288-.336.48-.696.576-1.08a41.386 41.386 0 0 0 1.224-6.696c.24-2.352.552-4.728.936-7.128.096.768.144 1.68.144 2.736 0 1.056-.024 2.112-.072 3.168a213.516 213.516 0 0 1-.144 2.808 34.508 34.508 0 0 0-.072 1.656c0 .192.048.432.144.72.192.576.72.864 1.584.864-.192.768-.528 1.536-1.008 2.304l-1.44 2.304v.864c.576.192 1.08.096 1.512-.288.432-.384.768-.84 1.008-1.368.24-.528.432-1.08.576-1.656.144-.576.264-1.008.36-1.296.384-2.208.696-4.464.936-6.768.24-2.304.648-4.56 1.224-6.768 0 .864-.048 1.848-.144 2.952a77.537 77.537 0 0 1-.36 3.312 234.468 234.468 0 0 0-.36 2.88c-.096.816-.144 1.32-.144 1.512v2.16h.432a8.726 8.726 0 0 0 2.448-3.816 28.66 28.66 0 0 0 1.08-4.752c.24-1.68.48-3.384.72-5.112.24-1.728.744-3.36 1.512-4.896-.096.48-.12 1.104-.072 1.872s-.024 1.392-.216 1.872c.192.192.408.384.648.576.24.192.36.336.36.432 0 .48.12 1.056.36 1.728.24.672.36 1.248.36 1.728zM311.576 63.6a33.289 33.289 0 0 1-.792 2.088c-.336.816-.6 1.464-.792 1.944.384-.576.744-1.248 1.08-2.016.336-.768.504-1.44.504-2.016zm6.624 4.032c-.864 0-1.632.264-2.304.792a14.17 14.17 0 0 0-1.944 1.872 40.616 40.616 0 0 0-1.8 2.232c-.576.768-1.2 1.44-1.872 2.016.192.384.48.768.864 1.152l.864.864c.384-.672.888-1.392 1.512-2.16a91.704 91.704 0 0 1 1.872-2.232c.624-.72 1.2-1.464 1.728-2.232.528-.768.888-1.536 1.08-2.304zM305.24 74.4v-2.016c0-.768-.072-1.8-.216-3.096a36.486 36.486 0 0 0-.648-3.888 28.34 28.34 0 0 0-1.008-3.528c-.384-1.056-.816-1.776-1.296-2.16v1.152c0 .288.048.84.144 1.656.096.816.216 1.776.36 2.88.144 1.104.288 2.232.432 3.384a32.95 32.95 0 0 0 .504 3.024c.096.288.312.72.648 1.296.336.576.696 1.008 1.08 1.296zm16.272 10.8c-.384-.864-1.032-1.8-1.944-2.808-.912-1.008-1.656-1.512-2.232-1.512h-3.312c-.192.192-.312.288-.36.288-.048 0-.072.24-.072.72 0 1.248.648 2.232 1.944 2.952 1.296.72 2.328 1.08 3.096 1.08.384 0 .864-.072 1.44-.216.576-.144 1.056-.312 1.44-.504zm-11.52-6.768v-1.728c-.48-.288-.912-.432-1.296-.432-.384.192-.888.72-1.512 1.584-.624.864-1.032 1.536-1.224 2.016h2.016c.48 0 .888-.192 1.224-.576.336-.384.6-.672.792-.864zM319.64 88.8a.977.977 0 0 0-.288-.72c-.096-.096-.144-.192-.144-.288-.768.288-1.44.432-2.016.432 0 .48.288.912.864 1.296.48-.48 1.008-.72 1.584-.72zm-18.72-16.848a99.493 99.493 0 0 0-2.304-2.232c-.768-.72-1.392-1.032-1.872-.936h-1.152a5.497 5.497 0 0 0 2.52 2.376c1.104.528 2.04.792 2.808.792zm15.12 17.568a14.09 14.09 0 0 0-.864-1.44 14.032 14.032 0 0 0-1.296-1.656c-.48-.528-.888-.936-1.224-1.224l-.504-.432c0 .192.048.576.144 1.152.096.576.264 1.152.504 1.728.24.576.504 1.104.792 1.584.288.48.672.72 1.152.72.48 0 .768-.072.864-.216a.485.485 0 0 1 .432-.216zm-5.04 0v-1.584c0-.48-.24-1.296-.72-2.448s-.912-2.208-1.296-3.168c-.384.96-.744 1.992-1.08 3.096-.336 1.104-.504 1.896-.504 2.376 0 .384.072.84.216 1.368.144.528.744.792 1.8.792.768 0 1.296-.144 1.584-.432zm-7.2-8.784c-.192-.192-.48-.384-.864-.576a2.858 2.858 0 0 0-1.296-.288c-.768 0-1.8.288-3.096.864-1.296.576-2.184 1.2-2.664 1.872.192 0 .384.072.576.216.192.144.528.216 1.008.216s1.392-.288 2.736-.864a69.988 69.988 0 0 1 3.6-1.44zm1.728 5.76v-2.304c-.48.192-.84.528-1.08 1.008-.24.48-.456.96-.648 1.44a8.9 8.9 0 0 0-.432 1.368c-.096.432-.144.696-.144.792.48-.192 1.008-.504 1.584-.936.576-.432.816-.888.72-1.368zm8.784 6.48l-1.296-.864c-.768.384-1.512.744-2.232 1.08-.72.336-1.464.6-2.232.792.288 1.632.672 3.024 1.152 4.176a57.252 57.252 0 0 0 2.304-2.448 68.962 68.962 0 0 0 2.304-2.736zm-11.952-8.352c-.384 0-.792.096-1.224.288-.432.192-.744.384-.936.576.384 0 .792-.096 1.224-.288.432-.192.744-.384.936-.576zm-8.64-8.208c-.384 0-.864-.024-1.44-.072-.576-.048-1.056-.168-1.44-.36.288.192.768.336 1.44.432.672.096 1.152.096 1.44 0zm7.776 11.952v-1.584h-.72v1.584h.72zm13.968 25.2l-.432-.288-1.584 2.304.432.288 1.584-2.304zm-7.632-2.592c-.576-.288-1.056-.768-1.44-1.44v-9.072c0-.768.072-1.632.216-2.592.144-.96.264-1.944.36-2.952.096-1.008.024-1.944-.216-2.808a4.295 4.295 0 0 0-1.368-2.16c-1.344 1.152-2.4 1.728-3.168 1.728-.672 0-1.104-.24-1.296-.72-.192-.48-.192-.912 0-1.296-.864.48-1.32 1.104-1.368 1.872-.048.768-.048 1.56 0 2.376.048.816-.024 1.536-.216 2.16-.192.624-.816.984-1.872 1.08 0 .672-.072 1.536-.216 2.592-.144 1.056-.216 1.824-.216 2.304 0 .48.168 1.488.504 3.024.336 1.536.504 2.688.504 3.456 0 1.44-.024 3.336-.072 5.688-.048 2.352-.12 4.44-.216 6.264 1.632-1.44 3.36-2.976 5.184-4.608a58.854 58.854 0 0 0 4.896-4.896zm8.208 6.912c0-.384-.096-.672-.288-.864l-.144-.144a47.477 47.477 0 0 1-3.24 2.16c-1.104.672-2.04 1.248-2.808 1.728.576 0 1.272.144 2.088.432.816.288 1.464.432 1.944.432s1.008-.384 1.584-1.152a4.212 4.212 0 0 0 .864-2.592zm-6.912-4.896c-.768.96-1.704 1.872-2.808 2.736a91.864 91.864 0 0 0-3.168 2.592 23.254 23.254 0 0 0-2.664 2.664c-.768.912-1.248 1.848-1.44 2.808a45.541 45.541 0 0 1 3.312-2.736 45.924 45.924 0 0 0 3.168-2.592c.96-.864 1.776-1.728 2.448-2.592a5.405 5.405 0 0 0 1.152-2.88zm38.592 55.152c-.576.192-.96.84-1.152 1.944-.192 1.104-.24 1.752-.144 1.944.864-1.344 1.296-2.64 1.296-3.888zm-35.568-27.648c0-.48-.12-1.224-.36-2.232-.24-1.008-.552-1.848-.936-2.52a2.447 2.447 0 0 0-.936-1.152c-.432-.288-.744-.528-.936-.72v4.464c0 .192.024.624.072 1.296.048.672.144 1.44.288 2.304.144.864.312 1.776.504 2.736.192.96.384 1.776.576 2.448a45.09 45.09 0 0 0 1.152-3.744c.384-1.44.576-2.4.576-2.88zm2.448 5.184c0-.48-.096-1.008-.288-1.584a28.823 28.823 0 0 0-.576-1.584c.096.768 0 1.608-.288 2.52-.288.912-.6 1.824-.936 2.736-.336.912-.72 1.824-1.152 2.736-.432.912-.744 1.704-.936 2.376 1.344-.48 2.376-1.488 3.096-3.024.72-1.536 1.08-2.928 1.08-4.176zm29.808 30.816v-4.464c-.384.384-.912.888-1.584 1.512s-1.248 1.032-1.728 1.224a45.59 45.59 0 0 0-1.224 4.896 55.414 55.414 0 0 1-1.08 4.608c.192-.096.6-.456 1.224-1.08a30.3 30.3 0 0 0 1.944-2.16 19.095 19.095 0 0 0 1.728-2.448c.48-.816.72-1.512.72-2.088zm-5.04-20.736a62.494 62.494 0 0 1-2.088 5.616 45.939 45.939 0 0 1-2.664 5.328c-.576.96-1.224 2.088-1.944 3.384a75.032 75.032 0 0 0-2.016 3.888 44.954 44.954 0 0 0-1.656 3.888c-.48 1.296-.72 2.424-.72 3.384 0 .48.192 1.104.576 1.872.384.768.72 1.392 1.008 1.872.96-1.056 1.8-2.16 2.52-3.312.72-1.152 1.224-2.256 1.512-3.312a6.073 6.073 0 0 0 .216-2.088 6.073 6.073 0 0 1 .216-2.088c.192 0 .288.048.288.144 0 .096.24.144.72.144.288 0 .648-.792 1.08-2.376.432-1.584.84-3.432 1.224-5.544.384-2.112.744-4.2 1.08-6.264.336-2.064.552-3.576.648-4.536zm-8.64 14.112a7.292 7.292 0 0 0-2.088 1.584 11.34 11.34 0 0 0-1.584 2.16 12.89 12.89 0 0 0-1.008 2.232c-.24.72-.408 1.368-.504 1.944a46.752 46.752 0 0 0 2.808-3.96 107.96 107.96 0 0 0 2.376-3.96zm-11.952 5.328c-.192.192-.312.504-.36.936a9.605 9.605 0 0 0-.072.936c.192-.192.336-.504.432-.936.096-.432.096-.744 0-.936zm-3.024-.72h-.576c-.384.48-.744 1.248-1.08 2.304-.336 1.056-.504 1.824-.504 2.304 0 .384.072.768.216 1.152.144.384.216.768.216 1.152.768-.768 1.128-1.824 1.08-3.168-.048-1.344.168-2.592.648-3.744zm-19.584-13.968c-.384.48-.72 1.08-1.008 1.8-.288.72-.48 1.32-.576 1.8.192-.576.456-1.176.792-1.8.336-.624.6-1.224.792-1.8zm.72 9.648v-5.76l-.648 1.296c-.24.48-.36.96-.36 1.44s.12 1.008.36 1.584c.24.576.456 1.056.648 1.44zm13.392 7.056a4.083 4.083 0 0 0-1.656-.792 5.436 5.436 0 0 1-1.8-.792 89.055 89.055 0 0 1-1.296 4.392 131.93 131.93 0 0 0-1.296 4.248c1.344-.672 2.544-1.728 3.6-3.168 1.056-1.44 1.872-2.736 2.448-3.888zm69.552 1.44c0 .48-.192.792-.576.936a8.38 8.38 0 0 1-1.296.36c-.48.096-.912.168-1.296.216-.384.048-.576.216-.576.504 0 .192.144.504.432.936.288.432.48.84.576 1.224a8.583 8.583 0 0 1-.648.288c-.24.096-.456.144-.648.144-.576 0-1.032-.12-1.368-.36a18.58 18.58 0 0 0-1.224-.792l-.144.576c-.096.384-.216.792-.36 1.224-.144.432-.336.84-.576 1.224-.24.384-.552.576-.936.576-.672 0-1.08-.456-1.224-1.368-.144-.912-.312-1.608-.504-2.088-.288.192-.768.648-1.44 1.368-.672.72-1.248 1.08-1.728 1.08a.887.887 0 0 1-.504-.144.887.887 0 0 0-.504-.144h-.864c-.192 0-.504-.072-.936-.216-.432-.144-.648-.312-.648-.504a.69.69 0 0 1 .216-.504l.504-.504v-.432c-.096.192-.288.288-.576.288-.096-.192-.144-.432-.144-.72s-.048-.528-.144-.72c-.288.192-.6.36-.936.504-.336.144-.6.216-.792.216-.48 0-.768-.12-.864-.36a1.769 1.769 0 0 1-.144-.648c0-.48.336-1.128 1.008-1.944.672-.816 1.344-1.368 2.016-1.656-.288-.192-.768-.336-1.44-.432-.672-.096-1.152-.384-1.44-.864.096-.864.648-1.272 1.656-1.224 1.008.048 1.752-.072 2.232-.36a7.901 7.901 0 0 0-.432-1.008c-.192-.384-.288-.72-.288-1.008 0-1.344.72-2.016 2.16-2.016h.72c.288 0 .576.24.864.72.576-.576.864-1.08.864-1.512 0-.432.384-.648 1.152-.648.768 0 1.176.456 1.224 1.368.048.912.312 1.8.792 2.664.96-.48 1.752-1.008 2.376-1.584.624-.576 1.416-.864 2.376-.864.576 0 .912.048 1.008.144.096.096.144.384.144.864 0 .768-.288 1.488-.864 2.16.384 0 .84-.12 1.368-.36.528-.24.888-.36 1.08-.36.672 0 1.008.336 1.008 1.008 0 .48-.24.888-.72 1.224-.48.336-1.104.744-1.872 1.224.096.288.288.48.576.576.288.096.6.216.936.36.336.144.648.312.936.504.288.192.432.48.432.864zm-1.44-4.608h-.864c-.096 0-.36.096-.792.288-.432.192-.888.384-1.368.576-.48.192-.912.384-1.296.576-.384.192-.624.288-.72.288-.192 0-.312.024-.36.072-.048.048-.168.024-.36-.072.576-.768 1.32-1.536 2.232-2.304.912-.768 1.368-1.248 1.368-1.44v-.72h-.72c-.192 0-.456.072-.792.216-.336.144-.6.264-.792.36-.192.192-.48.456-.864.792l-1.152 1.008c-.384.336-.72.648-1.008.936-.288.288-.432.48-.432.576 0 .192.072.456.216.792.144.336.264.6.36.792l.576-.432c.192.096.36.216.504.36a.69.69 0 0 0 .504.216c.288 0 .696-.096 1.224-.288a22.55 22.55 0 0 0 1.728-.72c.624-.288 1.2-.6 1.728-.936.528-.336.888-.648 1.08-.936zm.432 4.32c-.672-.48-1.176-.744-1.512-.792a10.169 10.169 0 0 0-1.368-.072c-.192 0-.672.072-1.44.216-.768.144-1.44.312-2.016.504 0 .288.024.504.072.648.048.144.072.264.072.36.48.096.984.144 1.512.144h1.08c.48 0 1.08-.024 1.8-.072.72-.048 1.32-.36 1.8-.936zm-8.64-5.184c0-.192-.096-.648-.288-1.368a10.242 10.242 0 0 0-.72-1.944c-.48.192-.768.456-.864.792-.096.336-.144.6-.144.792 0 .48.192 1.08.576 1.8.384.72.72 1.176 1.008 1.368.096-.192.192-.432.288-.72.096-.288.144-.528.144-.72zm5.904 8.928c-.192-.288-.48-.624-.864-1.008s-.672-.576-.864-.576h-.72c-.096.288.072.648.504 1.08.432.432.888.648 1.368.648.288 0 .48-.048.576-.144zm-7.344-6.192c-.288-.48-.552-.936-.792-1.368-.24-.432-.456-.888-.648-1.368-.192-.48-.432-.96-.72-1.44s-.672-.72-1.152-.72c-.768 0-1.152.48-1.152 1.44 0 .864.312 1.464.936 1.8a61.34 61.34 0 0 1 2.376 1.368c0 .096.024.192.072.288a.639.639 0 0 1 .072.288c.384-.192.72-.288 1.008-.288zm2.448 2.016c-.192-.48-.504-.792-.936-.936-.432-.144-.744-.216-.936-.216-.192 0-.528.12-1.008.36s-.816.504-1.008.792c.768.384 1.392.576 1.872.576.576 0 1.248-.192 2.016-.576zm1.008 3.888c0-.48-.024-.864-.072-1.152-.048-.288-.312-.816-.792-1.584a1.429 1.429 0 0 1-.648.144.895.895 0 0 0-.648.288v1.44c0 .48.216 1.152.648 2.016.432.864.696 1.344.792 1.44.192-.48.36-.984.504-1.512.144-.528.216-.888.216-1.08zm-7.056-6.336c-1.248-.192-2.4-.144-3.456.144.576.384.96.576 1.152.576.192 0 .552-.072 1.08-.216.528-.144.936-.312 1.224-.504zm2.16 3.456a.69.69 0 0 1-.504-.216c-.144-.144-.264-.216-.36-.216-.384.192-.768.528-1.152 1.008-.384.48-.624.864-.72 1.152.48-.288.96-.552 1.44-.792s.912-.552 1.296-.936zm-.432-2.448c-.096 0-.192-.048-.288-.144-.096 0-.144-.048-.144-.144-.48.768-1.368 1.344-2.664 1.728-1.296.384-2.232 1.296-2.808 2.736 1.056-.192 2.064-.72 3.024-1.584l2.88-2.592zm.864 5.04c-.192.192-.432.48-.72.864s-.432.72-.432 1.008c.192-.192.432-.504.72-.936.288-.432.432-.744.432-.936zm-2.448 1.008a.644.644 0 0 0-.36.432c-.048.192-.024.288.072.288s.168-.096.216-.288a1.97 1.97 0 0 0 .072-.432zm93.6-90c0 .288-.096.936-.288 1.944a370.015 370.015 0 0 1-.648 3.312c-.24 1.2-.456 2.304-.648 3.312s-.288 1.608-.288 1.8c0 .48.24 1.2.72 2.16.48.96.72 1.68.72 2.16 0 .48-.192.888-.576 1.224-.384.336-.768.504-1.152.504-.48 0-1.104-.384-1.872-1.152-.768-.768-1.392-1.488-1.872-2.16-.192-.384-.504-.816-.936-1.296a6.023 6.023 0 0 0-1.368-1.152c-1.056-.576-2.592-1.08-4.608-1.512-2.016-.432-3.696-.648-5.04-.648h-8.928c-.384.48-.576 1.248-.576 2.304v1.224c0 .624.024 1.368.072 2.232.048.864.096 1.776.144 2.736.048.96.12 1.776.216 2.448 0 .384.072.84.216 1.368.144.528.312 1.08.504 1.656a386.1 386.1 0 0 1 1.872-6.336c.672-2.208 1.968-4.032 3.888-5.472h1.152c.192.192.384.312.576.36.192.048.288.312.288.792 0 .48-.144.792-.432.936-.288.144-.624.456-1.008.936 0 .192.12.432.36.72s.312.624.216 1.008a13.64 13.64 0 0 0-.072 2.448c.048.864.12 1.728.216 2.592.096.864.192 1.632.288 2.304.096.672.144 1.104.144 1.296 0 .576-.12 1.152-.36 1.728-.24.576-.984 1.104-2.232 1.584 1.536 2.688 1.608 5.616.216 8.784-1.392 3.168-3.48 6.144-6.264 8.928-.192.192-.24.552-.144 1.08s.144.936.144 1.224l1.584 24.48c.864-1.056 1.584-2.376 2.16-3.96.576-1.584 1.68-2.952 3.312-4.104l.864.432a54.628 54.628 0 0 1-2.016 4.176l-2.304 4.32c.576.672.96 1.056 1.152 1.152.192.096.288.48.288 1.152 0 .192-.168.792-.504 1.8a93.26 93.26 0 0 1-1.152 3.24 93.26 93.26 0 0 0-1.152 3.24c-.336 1.008-.504 1.608-.504 1.8 0 .192.192.672.576 1.44.384.768.792 1.608 1.224 2.52.432.912.84 1.776 1.224 2.592.384.816.576 1.32.576 1.512 0 .96-.264 1.608-.792 1.944-.528.336-.984.504-1.368.504-.48 0-1.176-.192-2.088-.576-.912-.384-1.608-.576-2.088-.576-.384 0-.768.192-1.152.576-.384.384-.816.576-1.296.576-.48 0-.6-.072-.36-.216.24-.144.12-.216-.36-.216s-.792.24-.936.72c-.144.48-.552.72-1.224.72-.576 0-.936-.144-1.08-.432-.144-.288-.408-.624-.792-1.008-.48.192-1.128.48-1.944.864-.816.384-1.464.576-1.944.576h-3.024c-.288-.288-.432-.768-.432-1.44 0-.192.096-.624.288-1.296.192-.672.408-1.368.648-2.088.24-.72.456-1.416.648-2.088.192-.672.288-1.104.288-1.296a9.527 9.527 0 0 0-1.008-4.32 35.334 35.334 0 0 0-2.376-4.032 60.938 60.938 0 0 1-2.592-4.176c-.816-1.44-1.368-3.024-1.656-4.752l.864-.72c1.344.384 2.448 1.176 3.312 2.376.864 1.2 1.68 2.328 2.448 3.384a3.49 3.49 0 0 0 .432-.504c.096-.144.144-.456.144-.936 0-.48-.192-.936-.576-1.368a8.54 8.54 0 0 0-1.368-1.224c-.528-.384-1.032-.744-1.512-1.08a5.015 5.015 0 0 1-1.152-1.08c-.192-.384-.432-1.056-.72-2.016a25.826 25.826 0 0 1-.72-3.168 85.613 85.613 0 0 1-.504-3.456c-.144-1.152-.216-2.112-.216-2.88 0-.768.216-1.656.648-2.664.432-1.008 1.008-2.04 1.728-3.096a35.18 35.18 0 0 1 2.448-3.168 53.884 53.884 0 0 1 2.664-2.88v-26.496c-1.536-1.152-2.352-2.76-2.448-4.824-.096-2.064 0-3.912.288-5.544-.096-.096-.48-.24-1.152-.432a67.283 67.283 0 0 0-2.16-.576 39.55 39.55 0 0 0-2.304-.504c-.768-.144-1.296-.216-1.584-.216-.48 0-1.344.072-2.592.216-1.248.144-2.592.36-4.032.648a42.33 42.33 0 0 0-4.248 1.08c-1.392.432-2.472.888-3.24 1.368-.768.576-1.56 1.536-2.376 2.88a42.82 42.82 0 0 1-2.664 3.888h-1.296a5.407 5.407 0 0 1-.504-.576c-.144-.192-.216-.528-.216-1.008s.192-1.08.576-1.8c.384-.72.672-1.416.864-2.088-.192-.384-.264-.888-.216-1.512a12.62 12.62 0 0 1 .288-1.872l.432-1.872c.144-.624.216-1.128.216-1.512 0-.672-.096-1.656-.288-2.952a33.613 33.613 0 0 0-.792-3.816 25.31 25.31 0 0 0-1.152-3.384c-.432-1.008-.888-1.608-1.368-1.8V85.2c.48-.48 1.056-.72 1.728-.72.576 0 1.152.12 1.728.36.576.24 1.2.528 1.872.864.672.336 1.44.624 2.304.864.864.24 1.968.36 3.312.36.192 0 .984-.024 2.376-.072 1.392-.048 2.928-.072 4.608-.072 1.68 0 3.216-.024 4.608-.072a114.87 114.87 0 0 1 2.52-.072h.864c.288-.48.744-1.224 1.368-2.232.624-1.008 1.224-1.752 1.8-2.232-.576-.096-1.368.072-2.376.504-1.008.432-1.704.648-2.088.648-.48 0-.888-.048-1.224-.144a3.915 3.915 0 0 0-1.08-.144c-.192-.192-.312-.336-.36-.432-.048-.096-.072-.384-.072-.864 0-1.248.504-2.112 1.512-2.592s2.184-1.392 3.528-2.736c-.192-.096-.6-.168-1.224-.216a14.65 14.65 0 0 1-1.944-.288 5.446 5.446 0 0 1-1.8-.72c-.528-.336-.792-.792-.792-1.368 0-1.152.672-2.184 2.016-3.096a21.745 21.745 0 0 1 4.464-2.304c1.632-.624 3.144-1.104 4.536-1.44 1.392-.336 2.184-.504 2.376-.504A128.66 128.66 0 0 1 419 63.816a24.524 24.524 0 0 1-1.584-2.952l.432-3.456H419c1.44 0 3 .48 4.68 1.44 1.68.96 3.288 2.04 4.824 3.24a98.89 98.89 0 0 1 3.96 3.24c1.104.96 1.752 1.44 1.944 1.44.096 0 .528-.264 1.296-.792s1.608-1.104 2.52-1.728c.912-.624 1.776-1.2 2.592-1.728.816-.528 1.368-.792 1.656-.792h3.312c.48.48.672 1.272.576 2.376-.096 1.104-.24 1.896-.432 2.376.384.192.768.288 1.152.288.384 0 .768.048 1.152.144.384.288.744.576 1.08.864.336.288.504.672.504 1.152 0 .672-.216 1.296-.648 1.872a11.29 11.29 0 0 1-1.44 1.584c-.528.48-1.08.912-1.656 1.296l-1.296.864c.672.384 1.392.864 2.16 1.44.768.576 1.152 1.296 1.152 2.16 0 1.056-.48 1.896-1.44 2.52a26.336 26.336 0 0 1-3.312 1.8c.768.768 1.008 1.44.72 2.016-.288.576-.336 1.056-.144 1.44l-.288.144c-.096.096.048.144.432.144.192 0 .744-.048 1.656-.144a78.56 78.56 0 0 0 2.88-.36 91.045 91.045 0 0 1 2.808-.36c.864-.096 1.44-.144 1.728-.144 1.632 0 2.856.12 3.672.36.816.24 1.368.624 1.656 1.152.288.528.432 1.272.432 2.232v3.6zM443.912 63.6c-2.592 1.056-5.424 2.736-8.496 5.04.096.48.192.912.288 1.296.096.384.144.768.144 1.152h1.296c.384-.288 1.032-.72 1.944-1.296a20.282 20.282 0 0 0 2.592-1.944c.816-.72 1.488-1.44 2.016-2.16.528-.72.6-1.416.216-2.088zm3.744 5.328h-2.592c-.288 0-.744.144-1.368.432-.624.288-1.248.648-1.872 1.08-.624.432-1.224.864-1.8 1.296-.576.432-.912.792-1.008 1.08h3.744c.288 0 .696-.168 1.224-.504.528-.336 1.056-.72 1.584-1.152a19.478 19.478 0 0 0 1.44-1.296c.432-.432.648-.744.648-.936zm-2.16 8.784c-.096-.576-.744-1.152-1.944-1.728-1.2-.576-2.04-.864-2.52-.864s-1.152.168-2.016.504c-.864.336-1.68.696-2.448 1.08 1.056.768 2.28 1.464 3.672 2.088 1.392.624 2.328.936 2.808.936s.984-.24 1.512-.72.84-.912.936-1.296zm-13.392-9.648a24.131 24.131 0 0 0-2.664-2.808 22.948 22.948 0 0 0-3.24-2.448 25.875 25.875 0 0 0-3.384-1.8c-1.104-.48-2.04-.816-2.808-1.008 0 .288.216.936.648 1.944.432 1.008.96 2.064 1.584 3.168a15.085 15.085 0 0 0 2.16 2.952c.816.864 1.608 1.296 2.376 1.296.768 0 1.512-.216 2.232-.648.72-.432 1.752-.648 3.096-.648zm-2.592 2.016c-.192 0-.456.096-.792.288a3.76 3.76 0 0 0-.792.576c.384 0 .792-.096 1.224-.288.432-.192.552-.384.36-.576zm4.032 2.448h-4.176c-.864 0-1.584-.096-2.16-.288.096.48.168.984.216 1.512.048.528.072.936.072 1.224h2.016c.384.096.888.048 1.512-.144s1.128-.384 1.512-.576c.192-.192.408-.48.648-.864.24-.384.36-.672.36-.864zm7.92 11.664c-.288-1.056-.768-1.92-1.44-2.592a10.896 10.896 0 0 0-2.088-1.656 10.302 10.302 0 0 0-2.232-1.008 34.141 34.141 0 0 0-1.728-.504c.96 1.248 2.136 2.472 3.528 3.672 1.392 1.2 2.712 1.896 3.96 2.088zm-10.368-4.032c.192-.48.264-1.056.216-1.728-.048-.672-.312-1.2-.792-1.584-.096.576-.048 1.176.144 1.8.192.624.336 1.128.432 1.512zm10.8 6.624c-1.92-.768-3.744-1.824-5.472-3.168a19.63 19.63 0 0 1-1.584-1.44c-.576-.576-1.152-1.008-1.728-1.296-1.248 2.016-2.016 3.792-2.304 5.328 1.056.384 2.232.672 3.528.864 1.296.192 2.184.288 2.664.288s1.296-.096 2.448-.288c1.152-.192 1.968-.288 2.448-.288zM429.08 80.16h-.576l-.432 3.456h.576l.432-3.456zm-5.184-9.648c-.672-.48-1.512-.912-2.52-1.296s-1.704-.576-2.088-.576c-.576 0-1.32.12-2.232.36-.912.24-1.824.6-2.736 1.08a13.024 13.024 0 0 0-2.52 1.728c-.768.672-1.296 1.392-1.584 2.16h4.464c.192 0 .624-.144 1.296-.432a70.65 70.65 0 0 0 2.232-1.008 70.65 70.65 0 0 1 2.232-1.008c.672-.288 1.104-.432 1.296-.432.48 0 .744.144.792.432.048.288.024.528-.072.72-.96.96-1.968 1.776-3.024 2.448-1.056.672-2.088 1.32-3.096 1.944a47.51 47.51 0 0 0-2.808 1.872 8.671 8.671 0 0 0-2.16 2.232c1.92-.48 4.032-1.368 6.336-2.664 2.304-1.296 4.08-2.376 5.328-3.24 0-.672.072-1.416.216-2.232.144-.816.36-1.512.648-2.088zm2.592 6.048h-1.728l-9.072 8.496c2.016-.672 4.056-1.896 6.12-3.672 2.064-1.776 3.624-3.384 4.68-4.824zm-7.632 2.88a7.566 7.566 0 0 0-1.152.72c-.384.288-.576.624-.576 1.008l1.728-1.728zm5.472 4.032c0-.48-.048-.744-.144-.792-.096-.048-.24-.168-.432-.36a56.263 56.263 0 0 1-4.32 2.88c-1.44.864-2.688 1.776-3.744 2.736h4.752c.48.096.864.072 1.152-.072l.72-.36c.48-.672.936-1.392 1.368-2.16.432-.768.648-1.392.648-1.872zm12.384 24.768c-.192.48-.384 1.104-.576 1.872a27.67 27.67 0 0 1-.576 2.016c.384-.576.672-1.248.864-2.016.192-.768.288-1.392.288-1.872zm19.152-12.096V88.08h-8.352c-.192 0-.6.072-1.224.216-.624.144-1.248.312-1.872.504-.624.192-1.248.36-1.872.504-.624.144-1.032.216-1.224.216h-12.096c-.48-.576-.936-1.128-1.368-1.656-.432-.528-.888-.84-1.368-.936-.384.576-1.008 1.056-1.872 1.44-.864.384-1.752.72-2.664 1.008-.912.288-1.8.504-2.664.648-.864.144-1.536.216-2.016.216-.192 0-.84-.096-1.944-.288-1.104-.192-2.28-.408-3.528-.648-1.248-.24-2.424-.456-3.528-.648s-1.752-.288-1.944-.288c-.288 0-.888.048-1.8.144a49.97 49.97 0 0 1-2.952.216 49.97 49.97 0 0 0-2.952.216c-.912.096-1.464.144-1.656.144-.48 0-1.392-.072-2.736-.216-1.344-.144-2.496-.408-3.456-.792v1.584c0 .384.144 1.032.432 1.944.288.912.48 1.608.576 2.088.192 1.536.312 3.024.36 4.464.048 1.44-.024 2.736-.216 3.888 2.304-.96 5.016-1.848 8.136-2.664 3.12-.816 6.168-1.224 9.144-1.224.48 0 1.512.072 3.096.216 1.584.144 3 .408 4.248.792.384-.384.72-.768 1.008-1.152.288-.384.624-.576 1.008-.576.576 0 1.008.432 1.296 1.296.288.864.384 1.44.288 1.728a12.684 12.684 0 0 0-.36 2.232c-.048.72.024 1.32.216 1.8.288.672.816 1.488 1.584 2.448.768.96 1.608 1.896 2.52 2.808a34.102 34.102 0 0 0 2.808 2.52c.96.768 1.728 1.296 2.304 1.584a37.335 37.335 0 0 0 0-6.552 49.593 49.593 0 0 1-.144-6.552c0-.576.24-1.272.72-2.088.48-.816.96-1.224 1.44-1.224.384 0 1.464.096 3.24.288 1.776.192 3.744.432 5.904.72 2.16.288 4.224.6 6.192.936 1.968.336 3.336.648 4.104.936.48.192 1.104.552 1.872 1.08s1.392 1.128 1.872 1.8c.192-1.056.504-2.376.936-3.96.432-1.584.6-2.616.504-3.096zm-17.856 20.88c0-1.248-.096-2.088-.288-2.52-.192-.432-.288-.744-.288-.936-.192.192-.504.528-.936 1.008-.432.48-.648.96-.648 1.44v1.152c.96.384 1.68.336 2.16-.144zm-11.952-1.872a52.297 52.297 0 0 1-3.96-4.464 139.513 139.513 0 0 0-3.816-4.608v1.152c0 .768.288 1.584.864 2.448.576.864 1.272 1.68 2.088 2.448.816.768 1.68 1.416 2.592 1.944.912.528 1.656.888 2.232 1.08zm5.184 6.768c-.096 1.344-.144 2.424-.144 3.24v1.944c0 .576.048 1.008.144 1.296a6.407 6.407 0 0 0 .792-3.384c-.048-1.2-.312-2.232-.792-3.096zm4.896 2.88c0-.48-.096-1.2-.288-2.16-.192-.96-.48-1.776-.864-2.448h-2.448c.48.672.912 1.584 1.296 2.736.384 1.152.576 1.92.576 2.304 0 .48-.192 1.416-.576 2.808-.384 1.392-.864 2.472-1.44 3.24a34.01 34.01 0 0 0-1.08 1.728c-.336.576-.504 1.056-.504 1.44 1.632-1.344 2.928-2.88 3.888-4.608.96-1.728 1.44-3.408 1.44-5.04zm-6.768 36.864v-41.472a97.027 97.027 0 0 0-4.68-3.024 62.411 62.411 0 0 0-4.392-2.448v59.616c.672.576 1.008 1.152 1.008 1.728 0 .576-.072 1.2-.216 1.872-.144.672-.24 1.368-.288 2.088-.048.72.168 1.512.648 2.376.48-2.016.96-4.152 1.44-6.408.48-2.256.912-4.248 1.296-5.976.192-1.152.336-2.304.432-3.456.096-1.152.264-2.28.504-3.384s.6-2.136 1.08-3.096c.48-.96 1.2-1.824 2.16-2.592.288.288.336.576.144.864-.672 2.784-1.344 5.592-2.016 8.424a150.421 150.421 0 0 0-1.728 8.28c.48-.384.984-1.176 1.512-2.376a57.492 57.492 0 0 0 1.512-3.816c.48-1.344.864-2.688 1.152-4.032.288-1.344.432-2.4.432-3.168zm4.752 5.328h-.576l-.72 3.456h.576l.72-3.456zm-15.408-7.92a25.83 25.83 0 0 0 .072-5.112c-.144-1.776-.312-3.48-.504-5.112-.192.96-.432 2.112-.72 3.456-.288 1.344-.432 2.256-.432 2.736 0 .768.072 1.368.216 1.8.144.432.6 1.176 1.368 2.232zm.144-15.84c-.48.096-1.056.456-1.728 1.08a18.737 18.737 0 0 0-2.016 2.232 14.348 14.348 0 0 0-1.656 2.664c-.432.912-.648 1.656-.648 2.232 0 .192.048.696.144 1.512.096.816.264 1.728.504 2.736.24 1.008.48 2.064.72 3.168s.504 2.04.792 2.808c.192.576.6 1.056 1.224 1.44a20.87 20.87 0 0 0 1.512.864v-1.296c-.864-1.632-1.488-2.904-1.872-3.816-.384-.912-.576-2.184-.576-3.816 0-1.92.264-3.816.792-5.688.528-1.872 1.464-3.912 2.808-6.12zm11.088 26.496c-.096.192-.36.672-.792 1.44a32.553 32.553 0 0 0-1.296 2.592c-.432.96-.84 1.92-1.224 2.88s-.576 1.68-.576 2.16c0 .48.096.72.288.72.192 0 .288.048.288.144a61.168 61.168 0 0 1 2.304-5.184c.864-1.728 1.2-3.312 1.008-4.752zm2.88 13.68c0-.576-.096-1.08-.288-1.512-.192-.432-.384-.744-.576-.936 0 .384-.096.768-.288 1.152-.192.384-.384.816-.576 1.296h1.728zm-2.304-3.456h-.576l-1.44 3.312.432.144 1.584-3.456zm-5.904 4.464l-.576-2.736c-.192.48-.384 1.056-.576 1.728-.192.672-.288 1.248-.288 1.728.192 0 .432-.072.72-.216a2.74 2.74 0 0 0 .72-.504z" fill="#312D33"/></g></svg>